<svg width="343" height="343" viewBox="0 0 343 343" fill="none" xmlns="http://www.w3.org/2000/svg">
<path d="M279.831 60.3749C280.489 60.3749 281.148 60.1236 281.649 59.6211C282.654 58.617 282.654 56.9878 281.649 55.9836L274.503 48.8372L281.649 41.6908C282.654 40.6867 282.654 39.0574 281.649 38.0533C280.645 37.0483 279.016 37.0483 278.012 38.0533L270.865 45.1997L263.719 38.0533C262.715 37.0483 261.086 37.0483 260.082 38.0533C259.077 39.0574 259.077 40.6867 260.082 41.6908L267.228 48.8372L260.082 55.9836C259.077 56.9878 259.077 58.617 260.082 59.6211C260.583 60.1236 261.243 60.3749 261.9 60.3749C262.558 60.3749 263.217 60.1236 263.719 59.6211L270.865 52.4747L278.012 59.6211C278.514 60.1236 279.173 60.3749 279.831 60.3749Z" fill="url(#paint0_radial_2_1222)"/>
<path d="M303.955 237.985C303.285 237.316 302.198 237.316 301.53 237.985L291.287 248.228L281.044 237.985C280.374 237.316 279.288 237.316 278.619 237.985C277.949 238.655 277.949 239.741 278.619 240.41L288.862 250.653L278.619 260.896C277.949 261.566 277.949 262.651 278.619 263.321C278.954 263.656 279.392 263.824 279.831 263.824C280.27 263.824 280.709 263.656 281.044 263.321L291.287 253.078L301.53 263.321C301.865 263.656 302.303 263.824 302.742 263.824C303.181 263.824 303.62 263.656 303.955 263.321C304.624 262.651 304.624 261.566 303.955 260.896L293.712 250.653L303.955 240.41C304.624 239.741 304.624 238.655 303.955 237.985Z" fill="url(#paint1_radial_2_1222)"/>
<path d="M234.313 300.363C233.644 299.694 232.557 299.694 231.888 300.363L227.743 304.509L223.597 300.363C222.929 299.694 221.841 299.694 221.172 300.363C220.503 301.033 220.503 302.119 221.172 302.788L225.318 306.934L221.172 311.079C220.503 311.748 220.503 312.834 221.172 313.504C221.507 313.839 221.946 314.006 222.385 314.006C222.824 314.006 223.263 313.839 223.597 313.504L227.743 309.359L231.888 313.504C232.222 313.839 232.661 314.006 233.1 314.006C233.539 314.006 233.978 313.839 234.313 313.504C234.983 312.834 234.983 311.748 234.313 311.079L230.168 306.934L234.313 302.788C234.983 302.119 234.983 301.034 234.313 300.363Z" fill="url(#paint2_radial_2_1222)"/>
<path d="M89.1234 268.094C88.4537 267.424 87.3673 267.424 86.6984 268.094L79.5048 275.288L72.3113 268.094C71.6416 267.424 70.5551 267.424 69.8863 268.094C69.2165 268.764 69.2165 269.849 69.8863 270.519L77.0798 277.713L69.8863 284.908C69.2165 285.577 69.2165 286.663 69.8863 287.333C70.2215 287.668 70.6597 287.835 71.0988 287.835C71.5378 287.835 71.9768 287.668 72.3113 287.333L79.5048 280.138L86.6984 287.333C87.0337 287.668 87.4719 287.835 87.9109 287.835C88.3499 287.835 88.789 287.668 89.1234 287.333C89.7931 286.663 89.7931 285.577 89.1234 284.908L81.9298 277.713L89.1234 270.519C89.7931 269.848 89.7931 268.764 89.1234 268.094Z" fill="url(#paint3_radial_2_1222)"/>
<path d="M46.2253 193.424C45.5564 192.754 44.4691 192.754 43.8003 193.424L41.3847 195.839L38.9691 193.424C38.3002 192.754 37.2129 192.754 36.5441 193.424C35.8744 194.093 35.8744 195.179 36.5441 195.849L38.9597 198.264L36.5441 200.68C35.8744 201.35 35.8744 202.435 36.5441 203.105C36.8785 203.44 37.3176 203.607 37.7566 203.607C38.1956 203.607 38.6347 203.44 38.9691 203.105L41.3847 200.689L43.8003 203.105C44.1347 203.44 44.5737 203.607 45.0128 203.607C45.4518 203.607 45.8908 203.44 46.2253 203.105C46.895 202.435 46.895 201.35 46.2253 200.68L43.8097 198.264L46.2253 195.849C46.895 195.179 46.895 194.094 46.2253 193.424Z" fill="url(#paint4_radial_2_1222)"/>
<path d="M62.9096 60.3011C63.2441 60.6364 63.6831 60.8036 64.1221 60.8036C64.5612 60.8036 65.0002 60.6364 65.3346 60.3011L67.7502 57.8856L70.1658 60.3011C70.5002 60.6364 70.9393 60.8036 71.3783 60.8036C71.8173 60.8036 72.2564 60.6364 72.5908 60.3011C73.2605 59.6314 73.2605 58.5458 72.5908 57.8761L70.1752 55.4605L72.5908 53.045C73.2605 52.3753 73.2605 51.2897 72.5908 50.62C71.9219 49.9502 70.8346 49.9502 70.1658 50.62L67.7502 53.0355L65.3346 50.62C64.6658 49.9502 63.5785 49.9502 62.9096 50.62C62.2399 51.2897 62.2399 52.3753 62.9096 53.045L65.3252 55.4605L62.9096 57.8761C62.2399 58.5458 62.2399 59.6314 62.9096 60.3011Z" fill="url(#paint5_radial_2_1222)"/>
<path d="M147.472 28.4295C146.802 27.7598 145.716 27.7598 145.047 28.4295L138.82 34.6567L132.593 28.4295C131.923 27.7598 130.837 27.7598 130.168 28.4295C129.498 29.0992 129.498 30.1848 130.168 30.8545L136.395 37.0817L130.168 43.3089C129.498 43.9786 129.498 45.0642 130.168 45.7339C130.503 46.0692 130.941 46.2364 131.38 46.2364C131.819 46.2364 132.258 46.0692 132.593 45.7339L138.82 39.5067L145.047 45.7339C145.382 46.0692 145.82 46.2364 146.26 46.2364C146.699 46.2364 147.138 46.0692 147.472 45.7339C148.142 45.0642 148.142 43.9786 147.472 43.3089L141.245 37.0817L147.472 30.8545C148.142 30.1848 148.142 29.1001 147.472 28.4295Z" fill="url(#paint6_radial_2_1222)"/>
<path d="M219.685 52.3264C219.016 51.6567 217.928 51.6567 217.26 52.3264L212.922 56.6636L208.585 52.3264C207.916 51.6567 206.829 51.6567 206.16 52.3264C205.49 52.9961 205.49 54.0817 206.16 54.7514L210.497 59.0886L206.16 63.4259C205.49 64.0956 205.49 65.1812 206.16 65.8509C206.495 66.1862 206.934 66.3534 207.373 66.3534C207.812 66.3534 208.251 66.1862 208.585 65.8509L212.922 61.5136L217.26 65.8509C217.594 66.1862 218.033 66.3534 218.472 66.3534C218.911 66.3534 219.35 66.1862 219.685 65.8509C220.354 65.1812 220.354 64.0956 219.685 63.4259L215.347 59.0886L219.685 54.7514C220.354 54.0817 220.354 52.9969 219.685 52.3264Z" fill="url(#paint7_radial_2_1222)"/>
<path d="M69.6616 121.139C70.1006 121.139 70.5388 120.972 70.8741 120.637C71.5438 119.967 71.5438 118.881 70.8741 118.212L66.5472 113.885L70.8741 109.558C71.5438 108.888 71.5438 107.802 70.8741 107.133C70.2044 106.463 69.1179 106.463 68.4491 107.133L64.1222 111.46L59.7952 107.133C59.1264 106.463 58.0399 106.463 57.3702 107.133C56.7005 107.802 56.7005 108.888 57.3702 109.558L61.6971 113.885L57.3702 118.212C56.7005 118.881 56.7005 119.967 57.3702 120.637C57.7055 120.972 58.1437 121.139 58.5827 121.139C59.0217 121.139 59.4608 120.972 59.7952 120.637L64.1222 116.31L68.4491 120.637C68.7835 120.971 69.2226 121.139 69.6616 121.139Z" fill="url(#paint8_radial_2_1222)"/>
<path d="M303.017 130.333L304.765 128.585C305.435 127.916 305.435 126.83 304.765 126.16C304.096 125.491 303.009 125.491 302.34 126.16L300.592 127.908L298.845 126.16C298.176 125.491 297.089 125.491 296.42 126.16C295.75 126.83 295.75 127.916 296.42 128.585L298.167 130.333L296.42 132.081C295.75 132.75 295.75 133.836 296.42 134.506C296.754 134.841 297.193 135.008 297.632 135.008C298.071 135.008 298.51 134.841 298.845 134.506L300.592 132.758L302.34 134.506C302.674 134.841 303.113 135.008 303.552 135.008C303.991 135.008 304.431 134.841 304.765 134.506C305.435 133.836 305.435 132.75 304.765 132.081L303.017 130.333Z" fill="url(#paint9_radial_2_1222)"/>
<path d="M142.992 300.363C142.324 299.694 141.237 299.694 140.567 300.363L138.82 302.111L137.072 300.363C136.403 299.694 135.316 299.694 134.647 300.363C133.978 301.033 133.978 302.119 134.647 302.788L136.395 304.536L134.647 306.284C133.978 306.953 133.978 308.039 134.647 308.709C134.982 309.044 135.421 309.211 135.86 309.211C136.299 309.211 136.737 309.044 137.072 308.709L138.82 306.961L140.567 308.709C140.903 309.044 141.341 309.211 141.78 309.211C142.219 309.211 142.658 309.044 142.992 308.709C143.662 308.039 143.662 306.953 142.992 306.284L141.245 304.536L142.992 302.788C143.663 302.119 143.663 301.034 142.992 300.363Z" fill="url(#paint10_radial_2_1222)"/>
<path d="M87.7831 87.7831L255.217 255.217" stroke="#E55775" stroke-width="16" stroke-miterlimit="10" stroke-linecap="round" stroke-linejoin="round"/>
<path d="M87.7831 255.217L255.217 87.7831" stroke="#E55775" stroke-width="16" stroke-miterlimit="10" stroke-linecap="round" stroke-linejoin="round"/>
<path d="M171.5 267.495C224.517 267.495 267.495 224.517 267.495 171.5C267.495 118.483 224.517 75.5046 171.5 75.5046C118.483 75.5046 75.5046 118.483 75.5046 171.5C75.5046 224.517 118.483 267.495 171.5 267.495Z" fill="url(#paint11_linear_2_1222)"/>
<path d="M171.5 260.957C220.906 260.957 260.957 220.906 260.957 171.5C260.957 122.094 220.906 82.0431 171.5 82.0431C122.094 82.0431 82.043 122.094 82.043 171.5C82.043 220.906 122.094 260.957 171.5 260.957Z" fill="url(#paint12_radial_2_1222)"/>
<path d="M171.5 250.777C215.283 250.777 250.777 215.283 250.777 171.5C250.777 127.717 215.283 92.2233 171.5 92.2233C127.717 92.2233 92.2233 127.717 92.2233 171.5C92.2233 215.283 127.717 250.777 171.5 250.777Z" fill="url(#paint13_radial_2_1222)"/>
<path d="M171.5 226.1C201.655 226.1 226.1 201.655 226.1 171.5C226.1 141.345 201.655 116.9 171.5 116.9C141.345 116.9 116.9 141.345 116.9 171.5C116.9 201.655 141.345 226.1 171.5 226.1Z" fill="#E55775"/>
<path opacity="0.8" d="M171.5 226.1C201.655 226.1 226.1 201.655 226.1 171.5C226.1 141.345 201.655 116.9 171.5 116.9C141.345 116.9 116.9 141.345 116.9 171.5C116.9 201.655 141.345 226.1 171.5 226.1Z" fill="url(#paint14_radial_2_1222)"/>
<path opacity="0.8" d="M171.5 221.473C199.099 221.473 221.473 199.099 221.473 171.5C221.473 143.901 199.099 121.528 171.5 121.528C143.901 121.528 121.527 143.901 121.527 171.5C121.527 199.099 143.901 221.473 171.5 221.473Z" fill="url(#paint15_radial_2_1222)"/>
<path opacity="0.8" d="M171.5 216.845C196.544 216.845 216.845 196.544 216.845 171.5C216.845 146.456 196.544 126.155 171.5 126.155C146.456 126.155 126.155 146.456 126.155 171.5C126.155 196.544 146.456 216.845 171.5 216.845Z" fill="url(#paint16_radial_2_1222)"/>
<path opacity="0.8" d="M171.5 212.218C193.988 212.218 212.218 193.988 212.218 171.5C212.218 149.012 193.988 130.782 171.5 130.782C149.012 130.782 130.782 149.012 130.782 171.5C130.782 193.988 149.012 212.218 171.5 212.218Z" fill="url(#paint17_radial_2_1222)"/>
<path d="M171.5 207.87C191.587 207.87 207.87 191.587 207.87 171.5C207.87 151.413 191.587 135.13 171.5 135.13C151.413 135.13 135.13 151.413 135.13 171.5C135.13 191.587 151.413 207.87 171.5 207.87Z" fill="#CE3257"/>
<path d="M161.767 171.744L145.854 145.715C137.261 154.278 133.137 166.941 136.051 179.635C136.143 180.034 136.25 180.425 136.354 180.818L166.845 180.052L161.767 171.744Z" fill="url(#paint18_linear_2_1222)"/>
<path d="M176.155 162.948L206.646 162.182C203.223 149.241 193.174 139.699 181.011 136.392L166.422 163.193L176.155 162.948Z" fill="url(#paint19_linear_2_1222)"/>
<path d="M166.422 163.193L181.011 136.393C175.427 134.875 169.4 134.667 163.365 136.052C156.482 137.631 150.513 141.073 145.855 145.716L161.767 171.745L166.422 163.193Z" fill="url(#paint20_linear_2_1222)"/>
<path d="M181.234 171.256L197.146 197.285C205.739 188.722 209.862 176.059 206.949 163.365C206.857 162.966 206.75 162.575 206.646 162.182L176.155 162.948L181.234 171.256Z" fill="url(#paint21_linear_2_1222)"/>
<path d="M161.99 206.607C167.574 208.125 173.601 208.333 179.635 206.948C186.518 205.369 192.486 201.928 197.146 197.284L181.234 171.255L161.99 206.607Z" fill="url(#paint22_linear_2_1222)"/>
<path d="M136.354 180.818C139.778 193.759 149.827 203.301 161.99 206.608L176.579 179.808L136.354 180.818Z" fill="url(#paint23_linear_2_1222)"/>
<path d="M171.5 207.87C191.587 207.87 207.87 191.587 207.87 171.5C207.87 151.413 191.587 135.13 171.5 135.13C151.413 135.13 135.13 151.413 135.13 171.5C135.13 191.587 151.413 207.87 171.5 207.87Z" fill="url(#paint24_radial_2_1222)"/>
<path d="M232.196 222.494L181.202 171.5L232.196 120.506C229.247 117 226 113.753 222.495 110.805L171.5 161.798L120.506 110.804C117 113.753 113.753 117 110.805 120.506L161.798 171.5L110.804 222.494C113.753 226 117 229.247 120.506 232.196L171.5 181.202L222.494 232.196C226 229.247 229.247 226 232.196 222.494Z" fill="#E55775"/>
<defs>
<radialGradient id="paint0_radial_2_1222" cx="0" cy="0" r="1" gradientUnits="userSpaceOnUse" gradientTransform="translate(271.318 49.2234) scale(21.5844 21.5844)">
<stop stop-color="#FFD8E0"/>
<stop offset="0.9768" stop-color="#FFD9E0" stop-opacity="0"/>
</radialGradient>
<radialGradient id="paint1_radial_2_1222" cx="0" cy="0" r="1" gradientUnits="userSpaceOnUse" gradientTransform="translate(291.286 250.654) scale(18.0835 18.0835)">
<stop stop-color="#FBCBD4"/>
<stop offset="0.9768" stop-color="#FCECEF" stop-opacity="0"/>
</radialGradient>
<radialGradient id="paint2_radial_2_1222" cx="0" cy="0" r="1" gradientUnits="userSpaceOnUse" gradientTransform="translate(227.743 306.934) scale(9.60933 9.60932)">
<stop stop-color="#F694A9"/>
<stop offset="0.8653" stop-color="#FCECEF" stop-opacity="0"/>
</radialGradient>
<radialGradient id="paint3_radial_2_1222" cx="0" cy="0" r="1" gradientUnits="userSpaceOnUse" gradientTransform="translate(79.5041 277.713) scale(13.6764 13.6764)">
<stop stop-color="#FBCBD4"/>
<stop offset="0.9768" stop-color="#FEE3E8" stop-opacity="0"/>
</radialGradient>
<radialGradient id="paint4_radial_2_1222" cx="0" cy="0" r="1" gradientUnits="userSpaceOnUse" gradientTransform="translate(41.3844 198.265) scale(7.63098 7.63096)">
<stop stop-color="#F694A9"/>
<stop offset="0.8583" stop-color="#FCECEF" stop-opacity="0"/>
</radialGradient>
<radialGradient id="paint5_radial_2_1222" cx="0" cy="0" r="1" gradientUnits="userSpaceOnUse" gradientTransform="translate(67.7505 55.4604) scale(11.2921 11.2921)">
<stop stop-color="#F694A9"/>
<stop offset="0.571" stop-color="#FCECEF" stop-opacity="0"/>
</radialGradient>
<radialGradient id="paint6_radial_2_1222" cx="0" cy="0" r="1" gradientUnits="userSpaceOnUse" gradientTransform="translate(138.82 37.0818) scale(13.8849 13.8849)">
<stop stop-color="#FBCBD4"/>
<stop offset="0.9768" stop-color="#FCECEF" stop-opacity="0"/>
</radialGradient>
<radialGradient id="paint7_radial_2_1222" cx="0" cy="0" r="1" gradientUnits="userSpaceOnUse" gradientTransform="translate(212.923 59.0888) scale(9.52227 9.52228)">
<stop stop-color="#FBCBD4"/>
<stop offset="0.9768" stop-color="#FCECEF" stop-opacity="0"/>
</radialGradient>
<radialGradient id="paint8_radial_2_1222" cx="0" cy="0" r="1" gradientUnits="userSpaceOnUse" gradientTransform="translate(64.122 113.884) scale(9.96561 9.96561)">
<stop stop-color="#FBCBD4"/>
<stop offset="0.9768" stop-color="#FCECEF" stop-opacity="0"/>
</radialGradient>
<radialGradient id="paint9_radial_2_1222" cx="0" cy="0" r="1" gradientUnits="userSpaceOnUse" gradientTransform="translate(300.592 130.333) scale(6.47089 6.47085)">
<stop stop-color="#F794A9"/>
<stop offset="0.71875" stop-color="#FCECEF"/>
</radialGradient>
<radialGradient id="paint10_radial_2_1222" cx="0" cy="0" r="1" gradientUnits="userSpaceOnUse" gradientTransform="translate(138.82 304.536) scale(6.63921 6.6392)">
<stop stop-color="#F694A9"/>
<stop offset="0.8681" stop-color="#FCECEF" stop-opacity="0"/>
</radialGradient>
<linearGradient id="paint11_linear_2_1222" x1="102.463" y1="102.463" x2="331.963" y2="331.964" gradientUnits="userSpaceOnUse">
<stop stop-color="white"/>
<stop offset="1" stop-color="#E55775"/>
</linearGradient>
<radialGradient id="paint12_radial_2_1222" cx="0" cy="0" r="1" gradientUnits="userSpaceOnUse" gradientTransform="translate(140.688 145.897) scale(134.31)">
<stop stop-color="#E55775" stop-opacity="0"/>
<stop offset="0.8553" stop-color="#E55775" stop-opacity="0.8553"/>
<stop offset="1" stop-color="#E55775"/>
</radialGradient>
<radialGradient id="paint13_radial_2_1222" cx="0" cy="0" r="1" gradientUnits="userSpaceOnUse" gradientTransform="translate(171.5 171.5) scale(89.4699)">
<stop offset="0.4332" stop-color="#CE3257" stop-opacity="0"/>
<stop offset="1" stop-color="#CE3257" stop-opacity="0.7"/>
</radialGradient>
<radialGradient id="paint14_radial_2_1222" cx="0" cy="0" r="1" gradientUnits="userSpaceOnUse" gradientTransform="translate(150.029 154.502) scale(89.5414)">
<stop offset="0.3286" stop-color="white" stop-opacity="0"/>
<stop offset="0.8587" stop-color="white"/>
</radialGradient>
<radialGradient id="paint15_radial_2_1222" cx="0" cy="0" r="1" gradientUnits="userSpaceOnUse" gradientTransform="translate(159.061 164.276) scale(83.0903)">
<stop offset="0.3491" stop-color="white" stop-opacity="0"/>
<stop offset="0.8587" stop-color="white"/>
</radialGradient>
<radialGradient id="paint16_radial_2_1222" cx="0" cy="0" r="1" gradientUnits="userSpaceOnUse" gradientTransform="translate(161.852 163.783) scale(77.1004)">
<stop offset="0.3079" stop-color="white" stop-opacity="0"/>
<stop offset="0.8587" stop-color="white"/>
</radialGradient>
<radialGradient id="paint17_radial_2_1222" cx="0" cy="0" r="1" gradientUnits="userSpaceOnUse" gradientTransform="translate(160.046 159.515) scale(76.2733)">
<stop offset="0.1886" stop-color="white" stop-opacity="0"/>
<stop offset="0.8587" stop-color="white"/>
</radialGradient>
<linearGradient id="paint18_linear_2_1222" x1="150.001" y1="153.865" x2="151.615" y2="189.861" gradientUnits="userSpaceOnUse">
<stop stop-color="#FFD2DD"/>
<stop offset="0.1446" stop-color="#FDC9D6"/>
<stop offset="0.378" stop-color="#F8B1C2"/>
<stop offset="0.6709" stop-color="#F08BA1"/>
<stop offset="1" stop-color="#E55775"/>
</linearGradient>
<linearGradient id="paint19_linear_2_1222" x1="200.5" y1="163.271" x2="166.085" y2="145.362" gradientUnits="userSpaceOnUse">
<stop stop-color="#FFD2DD"/>
<stop offset="0.1446" stop-color="#FDC9D6"/>
<stop offset="0.378" stop-color="#F8B1C2"/>
<stop offset="0.6709" stop-color="#F08BA1"/>
<stop offset="1" stop-color="#E55775"/>
</linearGradient>
<linearGradient id="paint20_linear_2_1222" x1="177.562" y1="144.488" x2="145.403" y2="162.818" gradientUnits="userSpaceOnUse">
<stop stop-color="#FFD2DD"/>
<stop offset="0.1446" stop-color="#FDC9D6"/>
<stop offset="0.378" stop-color="#F8B1C2"/>
<stop offset="0.6709" stop-color="#F08BA1"/>
<stop offset="1" stop-color="#E55775"/>
</linearGradient>
<linearGradient id="paint21_linear_2_1222" x1="193.231" y1="191.71" x2="191.42" y2="153.999" gradientUnits="userSpaceOnUse">
<stop stop-color="#FFD2DD"/>
<stop offset="0.1446" stop-color="#FDC9D6"/>
<stop offset="0.378" stop-color="#F8B1C2"/>
<stop offset="0.6709" stop-color="#F08BA1"/>
<stop offset="1" stop-color="#E55775"/>
</linearGradient>
<linearGradient id="paint22_linear_2_1222" x1="167.62" y1="197.382" x2="202.352" y2="177.484" gradientUnits="userSpaceOnUse">
<stop stop-color="#FFD2DD"/>
<stop offset="0.1446" stop-color="#FDC9D6"/>
<stop offset="0.378" stop-color="#F8B1C2"/>
<stop offset="0.6709" stop-color="#F08BA1"/>
<stop offset="1" stop-color="#E55775"/>
</linearGradient>
<linearGradient id="paint23_linear_2_1222" x1="144.84" y1="180.982" x2="179.027" y2="198.749" gradientUnits="userSpaceOnUse">
<stop stop-color="#FFD2DD"/>
<stop offset="0.1446" stop-color="#FDC9D6"/>
<stop offset="0.378" stop-color="#F8B1C2"/>
<stop offset="0.6709" stop-color="#F08BA1"/>
<stop offset="1" stop-color="#E55775"/>
</linearGradient>
<radialGradient id="paint24_radial_2_1222" cx="0" cy="0" r="1" gradientUnits="userSpaceOnUse" gradientTransform="translate(171.5 171.5) scale(44.2114)">
<stop offset="0.4972" stop-color="#CE3257" stop-opacity="0"/>
<stop offset="1" stop-color="#CE3257"/>
</radialGradient>
</defs>
</svg>
