<svg width="41" height="42" viewBox="0 0 41 42" fill="none" xmlns="http://www.w3.org/2000/svg">
<path d="M20.4051 0.833252C9.33767 0.833252 0.333252 9.88002 0.333252 20.9999C0.333252 32.1198 9.38002 41.1666 20.4999 41.1666C31.6198 41.1666 40.6666 32.1198 40.6666 20.9999C40.6666 9.88002 31.5775 0.833252 20.4051 0.833252ZM22.5166 30.0833C22.5166 30.6355 22.0689 31.0833 21.5166 31.0833H19.4833C18.931 31.0833 18.4833 30.6355 18.4833 30.0833V28.0499C18.4833 27.4976 18.931 27.0499 19.4833 27.0499H21.5166C22.0689 27.0499 22.5166 27.4976 22.5166 28.0499V30.0833ZM22.5166 22.0166C22.5166 22.5689 22.0689 23.0166 21.5166 23.0166H19.4833C18.931 23.0166 18.4833 22.5689 18.4833 22.0166V11.9166C18.4833 11.3643 18.931 10.9166 19.4833 10.9166H21.5166C22.0689 10.9166 22.5166 11.3643 22.5166 11.9166V22.0166Z" fill="#E55775"/>
</svg>
