<svg width="343" height="343" viewBox="0 0 343 343" fill="none" xmlns="http://www.w3.org/2000/svg">
<path d="M258.965 132.055H84.0349C76.4572 132.055 70.3149 125.913 70.3149 118.335V77.1751C70.3149 69.5974 76.4572 63.4551 84.0349 63.4551H258.965C266.543 63.4551 272.685 69.5974 272.685 77.1751V118.335C272.685 125.913 266.543 132.055 258.965 132.055Z" fill="url(#paint0_linear_2_1389)"/>
<path d="M258.965 210.945H84.0349C76.4572 210.945 70.3149 204.803 70.3149 197.225V156.065C70.3149 148.487 76.4572 142.345 84.0349 142.345H258.965C266.543 142.345 272.685 148.487 272.685 156.065V197.225C272.685 204.803 266.543 210.945 258.965 210.945Z" fill="url(#paint1_linear_2_1389)"/>
<path d="M258.965 289.835H84.0349C76.4572 289.835 70.3149 283.693 70.3149 276.115V234.955C70.3149 227.377 76.4572 221.235 84.0349 221.235H258.965C266.543 221.235 272.685 227.377 272.685 234.955V276.115C272.685 283.693 266.543 289.835 258.965 289.835Z" fill="url(#paint2_linear_2_1389)"/>
<path d="M110.617 132.055H91.7524V142.345H110.617V132.055Z" fill="url(#paint3_linear_2_1389)"/>
<path d="M251.247 132.055H232.382V142.345H251.247V132.055Z" fill="url(#paint4_linear_2_1389)"/>
<path d="M110.617 210.945H91.7524V221.235H110.617V210.945Z" fill="url(#paint5_linear_2_1389)"/>
<path d="M251.247 210.945H232.382V221.235H251.247V210.945Z" fill="url(#paint6_linear_2_1389)"/>
<path d="M251.247 289.835H91.7524V300.125H251.247V289.835Z" fill="url(#paint7_linear_2_1389)"/>
<path d="M102.9 82.3203C94.3754 82.3203 87.4648 89.2309 87.4648 97.7553C87.4648 106.28 94.3754 113.19 102.9 113.19C111.424 113.19 118.335 106.28 118.335 97.7553C118.335 89.2309 111.424 82.3203 102.9 82.3203ZM102.9 103.758C99.5848 103.758 96.8973 101.07 96.8973 97.7553C96.8973 94.4402 99.5848 91.7528 102.9 91.7528C106.215 91.7528 108.902 94.4402 108.902 97.7553C108.902 101.07 106.215 103.758 102.9 103.758Z" fill="url(#paint8_linear_2_1389)"/>
<path d="M214.375 116.62H210.945C209.05 116.62 207.515 115.084 207.515 113.19V82.3201C207.515 80.4259 209.05 78.8901 210.945 78.8901H214.375C216.269 78.8901 217.805 80.4259 217.805 82.3201V113.19C217.805 115.084 216.269 116.62 214.375 116.62Z" fill="white"/>
<path d="M214.375 116.62H210.945C209.05 116.62 207.515 115.084 207.515 113.19V85.75H217.805V113.19C217.805 115.084 216.269 116.62 214.375 116.62Z" fill="url(#paint9_linear_2_1389)"/>
<path d="M233.24 116.62H229.81C227.916 116.62 226.38 115.084 226.38 113.19V82.3201C226.38 80.4259 227.916 78.8901 229.81 78.8901H233.24C235.134 78.8901 236.67 80.4259 236.67 82.3201V113.19C236.67 115.084 235.134 116.62 233.24 116.62Z" fill="white"/>
<path d="M233.24 116.62H229.81C227.916 116.62 226.38 115.085 226.38 113.19V97.7554H236.67V113.19C236.67 115.085 235.134 116.62 233.24 116.62Z" fill="url(#paint10_linear_2_1389)"/>
<path d="M252.105 116.62H248.675C246.78 116.62 245.245 115.084 245.245 113.19V82.3201C245.245 80.4259 246.78 78.8901 248.675 78.8901H252.105C253.999 78.8901 255.535 80.4259 255.535 82.3201V113.19C255.535 115.084 253.999 116.62 252.105 116.62Z" fill="white"/>
<path d="M252.105 116.62H248.675C246.78 116.62 245.245 115.084 245.245 113.19V90.895H255.535V113.19C255.535 115.084 253.999 116.62 252.105 116.62Z" fill="url(#paint11_linear_2_1389)"/>
<path d="M102.9 161.21C94.3754 161.21 87.4648 168.121 87.4648 176.645C87.4648 185.17 94.3754 192.08 102.9 192.08C111.424 192.08 118.335 185.17 118.335 176.645C118.335 168.121 111.424 161.21 102.9 161.21ZM102.9 182.648C99.5848 182.648 96.8973 179.96 96.8973 176.645C96.8973 173.33 99.5848 170.643 102.9 170.643C106.215 170.643 108.902 173.33 108.902 176.645C108.902 179.96 106.215 182.648 102.9 182.648Z" fill="url(#paint12_linear_2_1389)"/>
<path d="M153.492 182.648C156.807 182.648 159.495 179.96 159.495 176.645C159.495 173.33 156.807 170.643 153.492 170.643C150.177 170.643 147.49 173.33 147.49 176.645C147.49 179.96 150.177 182.648 153.492 182.648Z" fill="url(#paint13_radial_2_1389)"/>
<path d="M132.912 182.648C136.227 182.648 138.915 179.96 138.915 176.645C138.915 173.33 136.227 170.643 132.912 170.643C129.597 170.643 126.91 173.33 126.91 176.645C126.91 179.96 129.597 182.648 132.912 182.648Z" fill="url(#paint14_radial_2_1389)"/>
<path d="M153.492 103.758C156.807 103.758 159.495 101.07 159.495 97.7552C159.495 94.4401 156.807 91.7527 153.492 91.7527C150.177 91.7527 147.49 94.4401 147.49 97.7552C147.49 101.07 150.177 103.758 153.492 103.758Z" fill="url(#paint15_radial_2_1389)"/>
<path d="M132.912 103.758C136.227 103.758 138.915 101.07 138.915 97.7552C138.915 94.4401 136.227 91.7527 132.912 91.7527C129.597 91.7527 126.91 94.4401 126.91 97.7552C126.91 101.07 129.597 103.758 132.912 103.758Z" fill="url(#paint16_radial_2_1389)"/>
<path d="M153.492 261.537C156.807 261.537 159.495 258.85 159.495 255.535C159.495 252.22 156.807 249.532 153.492 249.532C150.177 249.532 147.49 252.22 147.49 255.535C147.49 258.85 150.177 261.537 153.492 261.537Z" fill="url(#paint17_radial_2_1389)"/>
<path d="M132.912 261.537C136.227 261.537 138.915 258.85 138.915 255.535C138.915 252.22 136.227 249.532 132.912 249.532C129.597 249.532 126.91 252.22 126.91 255.535C126.91 258.85 129.597 261.537 132.912 261.537Z" fill="url(#paint18_radial_2_1389)"/>
<path d="M214.375 195.51H210.945C209.05 195.51 207.515 193.974 207.515 192.08V161.21C207.515 159.316 209.05 157.78 210.945 157.78H214.375C216.269 157.78 217.805 159.316 217.805 161.21V192.08C217.805 193.974 216.269 195.51 214.375 195.51Z" fill="white"/>
<path d="M214.375 195.51H210.945C209.05 195.51 207.515 193.975 207.515 192.08V164.64H217.805V192.08C217.805 193.975 216.269 195.51 214.375 195.51Z" fill="url(#paint19_linear_2_1389)"/>
<path d="M233.24 195.51H229.81C227.916 195.51 226.38 193.974 226.38 192.08V161.21C226.38 159.316 227.916 157.78 229.81 157.78H233.24C235.134 157.78 236.67 159.316 236.67 161.21V192.08C236.67 193.974 235.134 195.51 233.24 195.51Z" fill="white"/>
<path d="M233.24 195.51H229.81C227.916 195.51 226.38 193.974 226.38 192.08V176.645H236.67V192.08C236.67 193.974 235.134 195.51 233.24 195.51Z" fill="url(#paint20_linear_2_1389)"/>
<path d="M252.105 195.51H248.675C246.78 195.51 245.245 193.974 245.245 192.08V161.21C245.245 159.316 246.78 157.78 248.675 157.78H252.105C253.999 157.78 255.535 159.316 255.535 161.21V192.08C255.535 193.974 253.999 195.51 252.105 195.51Z" fill="white"/>
<path d="M252.105 195.51H248.675C246.78 195.51 245.245 193.975 245.245 192.08V169.785H255.535V192.08C255.535 193.975 253.999 195.51 252.105 195.51Z" fill="url(#paint21_linear_2_1389)"/>
<path d="M102.9 240.1C94.3754 240.1 87.4648 247.011 87.4648 255.535C87.4648 264.06 94.3754 270.97 102.9 270.97C111.424 270.97 118.335 264.06 118.335 255.535C118.335 247.011 111.424 240.1 102.9 240.1ZM102.9 261.538C99.5848 261.538 96.8973 258.85 96.8973 255.535C96.8973 252.22 99.5848 249.533 102.9 249.533C106.215 249.533 108.902 252.22 108.902 255.535C108.902 258.85 106.215 261.538 102.9 261.538Z" fill="url(#paint22_linear_2_1389)"/>
<path d="M216.09 274.4H209.23C208.282 274.4 207.515 273.633 207.515 272.685V238.385C207.515 237.438 208.282 236.67 209.23 236.67H216.09C217.037 236.67 217.805 237.438 217.805 238.385V272.685C217.805 273.633 217.037 274.4 216.09 274.4Z" fill="white"/>
<path d="M216.09 274.4H209.23C208.282 274.4 207.515 273.633 207.515 272.685V243.53H217.805V272.685C217.805 273.633 217.037 274.4 216.09 274.4Z" fill="url(#paint23_linear_2_1389)"/>
<path d="M234.955 274.4H228.095C227.147 274.4 226.38 273.633 226.38 272.685V238.385C226.38 237.438 227.147 236.67 228.095 236.67H234.955C235.902 236.67 236.67 237.438 236.67 238.385V272.685C236.67 273.633 235.902 274.4 234.955 274.4Z" fill="white"/>
<path d="M234.955 274.4H228.095C227.147 274.4 226.38 273.633 226.38 272.685V255.535H236.67V272.685C236.67 273.633 235.902 274.4 234.955 274.4Z" fill="url(#paint24_linear_2_1389)"/>
<path d="M253.82 274.4H246.96C246.012 274.4 245.245 273.633 245.245 272.685V238.385C245.245 237.438 246.012 236.67 246.96 236.67H253.82C254.767 236.67 255.535 237.438 255.535 238.385V272.685C255.535 273.633 254.767 274.4 253.82 274.4Z" fill="white"/>
<path d="M253.82 274.4H246.96C246.012 274.4 245.245 273.633 245.245 272.685V248.675H255.535V272.685C255.535 273.633 254.767 274.4 253.82 274.4Z" fill="url(#paint25_linear_2_1389)"/>
<g filter="url(#filter0_dd_2_1389)">
<path d="M235.892 185.056L191.493 262.418C187.556 269.278 192.508 277.83 200.418 277.83H289.215C297.125 277.83 302.077 269.278 298.14 262.418L253.741 185.056C249.786 178.165 239.846 178.165 235.892 185.056Z" fill="white"/>
</g>
<path d="M245.245 265.825C248.56 265.825 251.247 263.137 251.247 259.822C251.247 256.507 248.56 253.82 245.245 253.82C241.93 253.82 239.242 256.507 239.242 259.822C239.242 263.137 241.93 265.825 245.245 265.825Z" fill="#E65876"/>
<path d="M245.245 198.94C242.403 198.94 240.1 201.243 240.1 204.085V243.53C240.1 246.372 242.403 248.675 245.245 248.675C248.087 248.675 250.39 246.372 250.39 243.53V204.085C250.39 201.243 248.087 198.94 245.245 198.94Z" fill="url(#paint26_linear_2_1389)"/>
<path d="M102.9 161.21C94.3754 161.21 87.4648 168.121 87.4648 176.645C87.4648 185.169 94.3754 192.08 102.9 192.08C111.424 192.08 118.335 185.169 118.335 176.645C118.335 168.121 111.424 161.21 102.9 161.21ZM102.9 182.647C99.5848 182.647 96.8973 179.96 96.8973 176.645C96.8973 173.33 99.5848 170.642 102.9 170.642C106.215 170.642 108.902 173.33 108.902 176.645C108.902 179.96 106.215 182.647 102.9 182.647Z" fill="url(#paint27_radial_2_1389)"/>
<path d="M102.9 240.1C94.3754 240.1 87.4648 247.011 87.4648 255.535C87.4648 264.06 94.3754 270.97 102.9 270.97C111.424 270.97 118.335 264.06 118.335 255.535C118.335 247.011 111.424 240.1 102.9 240.1ZM102.9 261.538C99.5848 261.538 96.8973 258.85 96.8973 255.535C96.8973 252.22 99.5848 249.533 102.9 249.533C106.215 249.533 108.902 252.22 108.902 255.535C108.902 258.85 106.215 261.538 102.9 261.538Z" fill="url(#paint28_radial_2_1389)"/>
<path d="M102.9 82.3198C94.3754 82.3198 87.4648 89.2304 87.4648 97.7548C87.4648 106.279 94.3754 113.19 102.9 113.19C111.424 113.19 118.335 106.279 118.335 97.7548C118.335 89.2304 111.424 82.3198 102.9 82.3198ZM102.9 103.757C99.5848 103.757 96.8973 101.07 96.8973 97.7548C96.8973 94.4397 99.5848 91.7523 102.9 91.7523C106.215 91.7523 108.902 94.4397 108.902 97.7548C108.902 101.07 106.215 103.757 102.9 103.757Z" fill="url(#paint29_radial_2_1389)"/>
<defs>
<filter id="filter0_dd_2_1389" x="160.112" y="149.888" width="169.408" height="157.942" filterUnits="userSpaceOnUse" color-interpolation-filters="sRGB">
<feFlood flood-opacity="0" result="BackgroundImageFix"/>
<feColorMatrix in="SourceAlpha" type="matrix" values="0 0 0 0 0 0 0 0 0 0 0 0 0 0 0 0 0 0 127 0" result="hardAlpha"/>
<feOffset/>
<feGaussianBlur stdDeviation="15"/>
<feComposite in2="hardAlpha" operator="out"/>
<feColorMatrix type="matrix" values="0 0 0 0 0.901961 0 0 0 0 0.345098 0 0 0 0 0.462745 0 0 0 1 0"/>
<feBlend mode="normal" in2="BackgroundImageFix" result="effect1_dropShadow_2_1389"/>
<feColorMatrix in="SourceAlpha" type="matrix" values="0 0 0 0 0 0 0 0 0 0 0 0 0 0 0 0 0 0 127 0" result="hardAlpha"/>
<feOffset/>
<feGaussianBlur stdDeviation="3.5"/>
<feComposite in2="hardAlpha" operator="out"/>
<feColorMatrix type="matrix" values="0 0 0 0 0.901961 0 0 0 0 0.345098 0 0 0 0 0.462745 0 0 0 1 0"/>
<feBlend mode="normal" in2="effect1_dropShadow_2_1389" result="effect2_dropShadow_2_1389"/>
<feBlend mode="normal" in="SourceGraphic" in2="effect2_dropShadow_2_1389" result="shape"/>
</filter>
<linearGradient id="paint0_linear_2_1389" x1="158.43" y1="48.8112" x2="185.298" y2="149.425" gradientUnits="userSpaceOnUse">
<stop stop-color="white"/>
<stop offset="1" stop-color="#E65876"/>
</linearGradient>
<linearGradient id="paint1_linear_2_1389" x1="158.43" y1="127.701" x2="185.298" y2="228.315" gradientUnits="userSpaceOnUse">
<stop stop-color="white"/>
<stop offset="1" stop-color="#E65876"/>
</linearGradient>
<linearGradient id="paint2_linear_2_1389" x1="158.43" y1="206.591" x2="185.298" y2="307.204" gradientUnits="userSpaceOnUse">
<stop stop-color="white"/>
<stop offset="1" stop-color="#E65876"/>
</linearGradient>
<linearGradient id="paint3_linear_2_1389" x1="101.185" y1="142.26" x2="101.185" y2="133.366" gradientUnits="userSpaceOnUse">
<stop offset="0.1861" stop-color="#E65876"/>
<stop offset="1" stop-color="#E65876" stop-opacity="0.5"/>
</linearGradient>
<linearGradient id="paint4_linear_2_1389" x1="241.815" y1="142.26" x2="241.815" y2="133.366" gradientUnits="userSpaceOnUse">
<stop offset="0.1861" stop-color="#E65876"/>
<stop offset="1" stop-color="#E65876" stop-opacity="0.5"/>
</linearGradient>
<linearGradient id="paint5_linear_2_1389" x1="101.185" y1="221.327" x2="101.185" y2="211.62" gradientUnits="userSpaceOnUse">
<stop offset="0.1861" stop-color="#E65876"/>
<stop offset="1" stop-color="#E6617D" stop-opacity="0.5"/>
</linearGradient>
<linearGradient id="paint6_linear_2_1389" x1="241.815" y1="221.327" x2="241.815" y2="211.62" gradientUnits="userSpaceOnUse">
<stop offset="0.1861" stop-color="#E65876"/>
<stop offset="1" stop-color="#E6617D" stop-opacity="0.5"/>
</linearGradient>
<linearGradient id="paint7_linear_2_1389" x1="171.5" y1="300.413" x2="171.5" y2="290.23" gradientUnits="userSpaceOnUse">
<stop offset="0.1861" stop-color="#E65876"/>
<stop offset="0.8503" stop-color="#E65D7A" stop-opacity="0.5"/>
</linearGradient>
<linearGradient id="paint8_linear_2_1389" x1="109.985" y1="110.675" x2="97.3822" y2="87.6937" gradientUnits="userSpaceOnUse">
<stop offset="0.0403" stop-color="white"/>
<stop offset="0.919" stop-color="#E65876"/>
</linearGradient>
<linearGradient id="paint9_linear_2_1389" x1="212.66" y1="115.821" x2="212.66" y2="73.7399" gradientUnits="userSpaceOnUse">
<stop stop-color="white"/>
<stop offset="0.8942" stop-color="#E65876"/>
</linearGradient>
<linearGradient id="paint10_linear_2_1389" x1="231.525" y1="116.265" x2="231.525" y2="91.8692" gradientUnits="userSpaceOnUse">
<stop stop-color="white"/>
<stop offset="1" stop-color="#E65876"/>
</linearGradient>
<linearGradient id="paint11_linear_2_1389" x1="250.39" y1="116.561" x2="250.39" y2="84.1176" gradientUnits="userSpaceOnUse">
<stop stop-color="white"/>
<stop offset="1" stop-color="#E65876"/>
</linearGradient>
<linearGradient id="paint12_linear_2_1389" x1="109.985" y1="189.565" x2="97.3822" y2="166.584" gradientUnits="userSpaceOnUse">
<stop offset="0.0403" stop-color="white"/>
<stop offset="0.919" stop-color="#E65876"/>
</linearGradient>
<radialGradient id="paint13_radial_2_1389" cx="0" cy="0" r="1" gradientUnits="userSpaceOnUse" gradientTransform="translate(156.782 180.012) scale(10.8529)">
<stop stop-color="white"/>
<stop offset="1" stop-color="#E55775"/>
</radialGradient>
<radialGradient id="paint14_radial_2_1389" cx="0" cy="0" r="1" gradientUnits="userSpaceOnUse" gradientTransform="translate(136.202 180.012) scale(10.8529 10.8529)">
<stop stop-color="white"/>
<stop offset="1" stop-color="#E55775"/>
</radialGradient>
<radialGradient id="paint15_radial_2_1389" cx="0" cy="0" r="1" gradientUnits="userSpaceOnUse" gradientTransform="translate(156.782 101.122) scale(10.8529)">
<stop stop-color="white"/>
<stop offset="1" stop-color="#E55775"/>
</radialGradient>
<radialGradient id="paint16_radial_2_1389" cx="0" cy="0" r="1" gradientUnits="userSpaceOnUse" gradientTransform="translate(136.202 101.122) scale(10.8529 10.8529)">
<stop stop-color="white"/>
<stop offset="1" stop-color="#E55775"/>
</radialGradient>
<radialGradient id="paint17_radial_2_1389" cx="0" cy="0" r="1" gradientUnits="userSpaceOnUse" gradientTransform="translate(156.782 258.902) scale(10.8529)">
<stop stop-color="white"/>
<stop offset="1" stop-color="#E55775"/>
</radialGradient>
<radialGradient id="paint18_radial_2_1389" cx="0" cy="0" r="1" gradientUnits="userSpaceOnUse" gradientTransform="translate(136.202 258.902) scale(10.8529 10.8529)">
<stop stop-color="white"/>
<stop offset="1" stop-color="#E55775"/>
</radialGradient>
<linearGradient id="paint19_linear_2_1389" x1="212.66" y1="194.482" x2="212.66" y2="161.476" gradientUnits="userSpaceOnUse">
<stop stop-color="white"/>
<stop offset="1" stop-color="#E65876"/>
</linearGradient>
<linearGradient id="paint20_linear_2_1389" x1="231.525" y1="195.371" x2="231.525" y2="171.35" gradientUnits="userSpaceOnUse">
<stop stop-color="white"/>
<stop offset="1" stop-color="#E65876"/>
</linearGradient>
<linearGradient id="paint21_linear_2_1389" x1="250.39" y1="195.51" x2="250.39" y2="166.474" gradientUnits="userSpaceOnUse">
<stop stop-color="white"/>
<stop offset="1" stop-color="#E65876"/>
</linearGradient>
<linearGradient id="paint22_linear_2_1389" x1="109.985" y1="268.455" x2="97.3822" y2="245.474" gradientUnits="userSpaceOnUse">
<stop offset="0.0403" stop-color="white"/>
<stop offset="0.919" stop-color="#E65876"/>
</linearGradient>
<linearGradient id="paint23_linear_2_1389" x1="219.987" y1="271.688" x2="207.169" y2="248.316" gradientUnits="userSpaceOnUse">
<stop stop-color="white"/>
<stop offset="1" stop-color="#E55775"/>
</linearGradient>
<linearGradient id="paint24_linear_2_1389" x1="236.436" y1="273.287" x2="227.916" y2="257.749" gradientUnits="userSpaceOnUse">
<stop stop-color="white"/>
<stop offset="1" stop-color="#E55775"/>
</linearGradient>
<linearGradient id="paint25_linear_2_1389" x1="256.681" y1="272.373" x2="245.705" y2="252.358" gradientUnits="userSpaceOnUse">
<stop stop-color="white"/>
<stop offset="1" stop-color="#E55775"/>
</linearGradient>
<linearGradient id="paint26_linear_2_1389" x1="245.245" y1="244.673" x2="245.245" y2="196.891" gradientUnits="userSpaceOnUse">
<stop offset="0.0894" stop-color="#E65876"/>
<stop offset="0.8823" stop-color="#F6C4D1"/>
</linearGradient>
<radialGradient id="paint27_radial_2_1389" cx="0" cy="0" r="1" gradientUnits="userSpaceOnUse" gradientTransform="translate(104.828 180.404) scale(23.8329 23.8329)">
<stop offset="0.4535" stop-color="#E65F7C" stop-opacity="0"/>
<stop offset="0.893" stop-color="#E66681"/>
</radialGradient>
<radialGradient id="paint28_radial_2_1389" cx="0" cy="0" r="1" gradientUnits="userSpaceOnUse" gradientTransform="translate(104.828 259.294) scale(23.8329 23.8329)">
<stop offset="0.4535" stop-color="#E65F7C" stop-opacity="0"/>
<stop offset="0.893" stop-color="#E66681"/>
</radialGradient>
<radialGradient id="paint29_radial_2_1389" cx="0" cy="0" r="1" gradientUnits="userSpaceOnUse" gradientTransform="translate(104.828 101.514) scale(23.8329)">
<stop offset="0.4535" stop-color="#E65F7C" stop-opacity="0"/>
<stop offset="0.893" stop-color="#E66681"/>
</radialGradient>
</defs>
</svg>
