<svg width="343" height="343" viewBox="0 0 343 343" fill="none" xmlns="http://www.w3.org/2000/svg">
<g opacity="0.2">
<path opacity="0.2" d="M335.564 281.119L298.964 257.92C296.483 256.347 294.98 253.614 294.98 250.677V83.433C294.98 80.4961 296.483 77.7633 298.964 76.1906L335.564 52.9909V281.119Z" fill="url(#paint0_linear_2_1291)"/>
</g>
<g opacity="0.2">
<path opacity="0.2" d="M134.058 265.729V281.119L170.658 257.92C173.139 256.347 174.642 253.614 174.642 250.677V232.38C169.051 238.558 164.936 243.024 164.936 243.024C152.573 256.488 143.807 259.528 134.058 265.729Z" fill="url(#paint1_linear_2_1291)"/>
</g>
<g opacity="0.2">
<path opacity="0.2" d="M174.642 96.8769V83.433C174.642 80.4961 173.139 77.7633 170.658 76.1906L134.058 52.9909V134.339C136.396 132.002 139.007 129.391 141.916 126.481C149.87 118.527 162.92 106.924 174.642 96.8769Z" fill="url(#paint2_linear_2_1291)"/>
</g>
<g opacity="0.3">
<path opacity="0.3" d="M271.7 61.74H198.209C190.089 61.74 183.505 68.3239 183.505 76.4444V89.3618C187.738 85.8135 191.493 82.729 194.347 80.4532C197.961 77.572 203.138 77.777 206.517 80.93C210.352 84.5101 210.48 90.5486 206.799 94.2873L183.505 119.151V126.69C185.689 126.991 187.768 127.883 189.391 129.416C193.769 133.55 194.55 140.994 190.462 145.417L185.419 150.535C189.682 146.47 196.745 146.854 201.028 150.899C205.373 155.002 205.677 161.813 201.716 166.287L194.84 174.559C199.034 170.798 205.777 171.28 209.878 175.141C214.009 179.029 214.445 185.443 210.879 189.854L197.503 206.4C193.527 211.155 188.455 216.947 183.505 222.508V257.98C183.505 266.101 190.089 272.685 198.21 272.685H271.701C279.822 272.685 286.406 266.101 286.406 257.98V76.4444C286.405 68.3239 279.821 61.74 271.7 61.74Z" fill="url(#paint3_linear_2_1291)"/>
</g>
<path d="M290.693 100.103H317.275" stroke="#FFD2DD" stroke-width="2" stroke-miterlimit="10" stroke-linecap="round" stroke-linejoin="round"/>
<path d="M227.133 110.761H200.086C197.108 110.761 194.694 108.346 194.694 105.368V78.3215C194.694 75.3434 197.108 72.9287 200.086 72.9287H227.133C230.111 72.9287 232.526 75.3434 232.526 78.3215V105.368C232.526 108.346 230.111 110.761 227.133 110.761Z" fill="#CE3257"/>
<path d="M237.527 100.083H242.742C244.722 100.094 246.452 98.748 246.928 96.8255L250.528 82.2805L259.35 111.918L262.72 102.891C263.346 101.214 264.947 100.103 266.736 100.103H278.522" stroke="white" stroke-width="2" stroke-miterlimit="10" stroke-linecap="round" stroke-linejoin="round"/>
<path d="M290.693 160.087L317.275 160.128" stroke="#ED8EA9" stroke-width="2" stroke-miterlimit="10" stroke-linecap="round" stroke-linejoin="round"/>
<path d="M208.727 159.955H214.091C215.906 159.959 217.525 158.819 218.136 157.11L221.406 147.956L229.981 168.536L234.268 156.531L239.31 163.434L242.42 160.947C243.183 160.337 244.13 160.005 245.106 160.007L278.524 160.062" stroke="#E55775" stroke-width="2" stroke-miterlimit="10" stroke-linecap="round" stroke-linejoin="round"/>
<path d="M278.523 219.577H262.029C260.644 219.577 259.345 218.908 258.54 217.781L255.535 213.574L251.248 219.577L246.96 198.997L242.673 230.724L238.385 215.289L234.506 222.145L231.237 220.184C230.571 219.784 229.808 219.572 229.031 219.572L191.334 219.574" stroke="#E55775" stroke-width="2" stroke-miterlimit="10" stroke-linecap="round" stroke-linejoin="round"/>
<path d="M317.275 219.577H290.693" stroke="#ED8EA9" stroke-width="2" stroke-miterlimit="10" stroke-linecap="round" stroke-linejoin="round"/>
<path d="M183.505 119.151V126.69C184.7 126.855 185.861 127.201 186.935 127.729V115.49L183.505 119.151Z" fill="url(#paint4_linear_2_1291)"/>
<path d="M271.7 61.74H198.209C190.089 61.74 183.505 68.3239 183.505 76.4453V89.3626C184.69 88.3697 185.835 87.4153 186.935 86.5029V76.4453C186.935 70.2275 191.993 65.17 198.21 65.17H271.701C277.917 65.17 282.975 70.2275 282.975 76.4453V257.981C282.975 264.197 277.917 269.256 271.7 269.256H198.209C191.993 269.256 186.934 264.198 186.934 257.981V218.638C185.794 219.93 184.646 221.226 183.504 222.508V257.98C183.504 266.101 190.088 272.685 198.209 272.685H271.7C279.821 272.685 286.405 266.101 286.405 257.98V76.4453C286.405 68.3239 279.821 61.74 271.7 61.74Z" fill="url(#paint5_linear_2_1291)"/>
<path d="M227.211 73.745C229.59 73.745 231.525 75.6804 231.525 78.0591V105.447C231.525 107.825 229.59 109.761 227.211 109.761H199.823C197.445 109.761 195.509 107.825 195.509 105.447V78.0591C195.509 75.6804 197.445 73.745 199.823 73.745H227.211ZM227.211 72.03H199.823C196.494 72.03 193.794 74.7294 193.794 78.0591V105.447C193.794 108.776 196.494 111.476 199.823 111.476H227.211C230.541 111.476 233.24 108.776 233.24 105.447V78.0591C233.24 74.7294 230.541 72.03 227.211 72.03Z" fill="url(#paint6_linear_2_1291)"/>
<path d="M205.8 91.7525C210.062 91.7525 213.518 88.2973 213.518 84.035C213.518 79.7727 210.062 76.3175 205.8 76.3175C201.538 76.3175 198.083 79.7727 198.083 84.035C198.083 88.2973 201.538 91.7525 205.8 91.7525Z" fill="white"/>
<path d="M205.8 110.761C220.56 110.761 232.526 98.7952 232.526 84.035C232.526 69.2748 220.56 57.3093 205.8 57.3093C191.04 57.3093 179.074 69.2748 179.074 84.035C179.074 98.7952 191.04 110.761 205.8 110.761Z" fill="url(#paint7_radial_2_1291)"/>
<path d="M221.235 107.188C225.497 107.188 228.952 103.732 228.952 99.47C228.952 95.2077 225.497 91.7525 221.235 91.7525C216.973 91.7525 213.517 95.2077 213.517 99.47C213.517 103.732 216.973 107.188 221.235 107.188Z" fill="white"/>
<path d="M223.807 84.8925C225.702 84.8925 227.237 83.3568 227.237 81.4625C227.237 79.5682 225.702 78.0325 223.807 78.0325C221.913 78.0325 220.377 79.5682 220.377 81.4625C220.377 83.3568 221.913 84.8925 223.807 84.8925Z" fill="white"/>
<path d="M204.942 102.9C206.363 102.9 207.515 101.748 207.515 100.328C207.515 98.9068 206.363 97.755 204.942 97.755C203.522 97.755 202.37 98.9068 202.37 100.328C202.37 101.748 203.522 102.9 204.942 102.9Z" fill="white"/>
<path d="M209.877 175.141C205.775 171.28 199.033 170.799 194.839 174.559L201.715 166.286C205.677 161.812 205.372 155.001 201.027 150.898C196.745 146.853 189.681 146.469 185.418 150.534L190.461 145.416C194.55 140.994 193.768 133.55 189.39 129.415C185.161 125.421 177.836 125.734 173.6 129.722L206.798 94.2873C210.479 90.5486 210.352 84.5101 206.516 80.93C203.137 77.7761 197.96 77.5712 194.346 80.4532C182.485 89.9123 155.147 113.248 141.915 126.48C137.201 131.195 133.264 135.132 130.018 138.378C133.314 125.799 127.819 119.031 124.028 116.021C122.471 114.784 120.173 115.232 119.135 116.928C113.12 126.755 93.6527 158.939 90.0375 169.785C86.5646 180.203 81.4385 196.334 79.6146 202.091C79.3908 202.765 79.179 203.439 78.974 204.115C78.9535 204.18 78.9389 204.226 78.9389 204.226L78.9414 204.225C77.295 209.696 76.2995 215.199 76.1477 220.506L30.7988 265.347L54.0714 283.471C73.3085 298.451 101.762 296.209 119.031 278.134C136.3 260.06 146.708 262.874 164.936 243.024C164.936 243.024 185.888 220.287 197.502 206.4L210.877 189.855C214.444 185.443 214.008 179.029 209.877 175.141Z" fill="url(#paint8_linear_2_1291)"/>
<path d="M164.936 243.024C164.936 243.024 185.888 220.287 197.502 206.4L210.877 189.855C214.444 185.444 214.007 179.03 209.877 175.142C205.774 171.281 199.032 170.799 194.839 174.56L191.762 177.743L145.421 225.684L164.936 243.024Z" fill="url(#paint9_linear_2_1291)"/>
<path d="M155.316 181.097L178.215 157.849L185.418 150.535C189.681 146.469 196.744 146.854 201.027 150.899C205.372 155.002 205.677 161.813 201.715 166.287L195.406 173.876L172.524 197.92L155.316 181.097Z" fill="url(#paint10_linear_2_1291)"/>
<path d="M157.71 178.668L179.693 156.349L185.418 150.535L190.461 145.417C194.55 140.994 193.768 133.55 189.39 129.416C185.161 125.421 177.836 125.735 173.6 129.723L162.979 139.946L139.33 162.707L157.71 178.668Z" fill="url(#paint11_linear_2_1291)"/>
<path d="M130.018 138.379C133.315 125.8 127.82 119.032 124.029 116.021C122.472 114.785 120.174 115.233 119.136 116.929C113.12 126.755 93.5935 158.92 90.0375 169.785C87.7951 176.635 85.0271 185.221 82.9065 191.82C98.6871 170.665 124.728 143.564 130.018 138.379Z" fill="url(#paint12_linear_2_1291)"/>
<g opacity="0.8">
<path opacity="0.8" d="M199.776 103.832C208.407 103.832 215.404 96.8352 215.404 88.2042C215.404 79.5731 208.407 72.5762 199.776 72.5762C191.145 72.5762 184.148 79.5731 184.148 88.2042C184.148 96.8352 191.145 103.832 199.776 103.832Z" fill="url(#paint13_radial_2_1291)"/>
</g>
<path d="M307.959 303.658C312.415 303.658 316.026 300.046 316.026 295.591C316.026 291.135 312.415 287.523 307.959 287.523C303.504 287.523 299.892 291.135 299.892 295.591C299.892 300.046 303.504 303.658 307.959 303.658Z" fill="url(#paint14_radial_2_1291)"/>
<path d="M161.853 98.7651C161.294 98.7617 160.738 98.6202 160.247 98.3552L156.97 96.5922C156.603 96.3959 156.148 96.4893 155.891 96.8169L152.028 101.71L143.858 89.1054C143.681 88.8353 143.371 88.6818 143.047 88.7195C142.726 88.753 142.451 88.9648 142.336 89.2675L134.504 109.852L126.328 75.6023C126.233 75.2088 125.867 74.9652 125.472 74.9438C125.066 74.9549 124.724 75.2473 124.65 75.6452L120.889 95.9543C120.589 97.5801 119.17 98.7591 117.517 98.7591H25.725C25.2517 98.7591 24.8675 99.1424 24.8675 99.6166C24.8675 100.091 25.2517 100.474 25.725 100.474H117.516C119.996 100.474 122.123 98.7043 122.575 96.2655L125.599 79.9379L133.481 112.956C133.568 113.322 133.884 113.588 134.26 113.613C134.278 113.614 134.296 113.614 134.315 113.614C134.67 113.614 134.989 113.396 135.116 113.061L143.337 91.4575L151.239 103.648C151.39 103.88 151.643 104.025 151.919 104.038C152.191 104.052 152.46 103.93 152.632 103.713L156.79 98.4444L159.434 99.8662C160.171 100.262 161.003 100.475 161.845 100.48L170.43 100.506C171.092 99.933 171.751 99.3628 172.409 98.7969L161.853 98.7651Z" fill="#FFD2DD"/>
<path d="M94.4605 159.09H79.6712C79.6695 159.09 79.6677 159.09 79.666 159.09C78.7365 159.09 77.8233 159.343 77.0232 159.823L74.5082 161.332L71.061 155.242C70.8904 154.94 70.5525 154.762 70.2104 154.813C69.8665 154.855 69.581 155.1 69.4884 155.435L66.3182 166.849L62.5898 139.257C62.534 138.844 62.1876 138.529 61.77 138.515C61.3618 138.503 60.9854 138.788 60.8996 139.197L57.0117 157.861L53.8621 153.451C53.5397 153.001 52.7886 153.001 52.4661 153.451L49.4615 157.658C48.8183 158.558 47.7756 159.095 46.6703 159.095H25.725C25.2517 159.095 24.8675 159.478 24.8675 159.952C24.8675 160.426 25.2517 160.81 25.725 160.81H46.6711C48.3287 160.81 49.8936 160.004 50.8583 158.655L53.165 155.424L56.7545 160.449C56.9526 160.727 57.2947 160.86 57.6291 160.79C57.9627 160.719 58.2225 160.459 58.292 160.126L61.5599 144.441L65.1777 171.214C65.2326 171.617 65.5627 171.926 65.9692 171.954C65.9889 171.955 66.0086 171.956 66.0284 171.956C66.4108 171.956 66.7504 171.702 66.8541 171.328L70.5877 157.886L73.4483 162.941C73.5623 163.143 73.7519 163.289 73.9757 163.349C74.2003 163.409 74.437 163.374 74.6359 163.255L77.9047 161.294C78.4381 160.975 79.0469 160.806 79.666 160.806C79.6669 160.806 79.6686 160.806 79.6695 160.806H94.0069C94.2727 160.275 94.5462 159.734 94.8283 159.182C94.7169 159.127 94.5942 159.09 94.4605 159.09Z" fill="#ED8EA9"/>
<path d="M76.1666 220.139L72.5274 215.618C72.3601 215.41 72.108 215.307 71.8396 215.298C71.573 215.305 71.3243 215.434 71.1674 215.649L66.6535 221.829L64.243 219.901C63.3341 219.174 62.1919 218.774 61.024 218.774C61.0223 218.774 61.0206 218.774 61.0197 218.774L25.7224 218.895C25.2491 218.897 24.8658 219.282 24.8675 219.755C24.8692 220.228 25.2525 220.61 25.725 220.61C25.7259 220.61 25.7267 220.61 25.7276 220.61L61.0223 220.489C61.0231 220.489 61.024 220.489 61.0248 220.489C61.8026 220.489 62.5649 220.757 63.1712 221.241L66.2813 223.729C66.434 223.851 66.6235 223.916 66.8173 223.916C66.855 223.916 66.8927 223.914 66.9305 223.909C67.1628 223.878 67.3712 223.753 67.5093 223.565L71.8919 217.564L75.0964 221.546L76.1477 220.506C76.152 220.384 76.1623 220.261 76.1666 220.139Z" fill="#ED8EA9"/>
<path d="M161 343C182.539 343 200 325.539 200 304C200 282.461 182.539 265 161 265C139.461 265 122 282.461 122 304C122 325.539 139.461 343 161 343Z" fill="url(#paint15_radial_2_1291)"/>
<path d="M161 313.739C166.379 313.739 170.739 309.379 170.739 304C170.739 298.622 166.379 294.261 161 294.261C155.621 294.261 151.261 298.622 151.261 304C151.261 309.379 155.621 313.739 161 313.739Z" fill="url(#paint16_radial_2_1291)"/>
<path d="M87.8637 51.7274C99.9386 51.7274 109.727 41.9387 109.727 29.8637C109.727 17.7887 99.9386 8 87.8637 8C75.7887 8 66 17.7887 66 29.8637C66 41.9387 75.7887 51.7274 87.8637 51.7274Z" fill="url(#paint17_radial_2_1291)"/>
<path d="M87.8637 33.3315C89.7789 33.3315 91.3315 31.7789 91.3315 29.8637C91.3315 27.9486 89.7789 26.396 87.8637 26.396C85.9486 26.396 84.396 27.9486 84.396 29.8637C84.396 31.7789 85.9486 33.3315 87.8637 33.3315Z" fill="url(#paint18_radial_2_1291)"/>
<path d="M308 327C325.121 327 339 313.121 339 296C339 278.879 325.121 265 308 265C290.879 265 277 278.879 277 296C277 313.121 290.879 327 308 327Z" fill="url(#paint19_radial_2_1291)"/>
<path d="M308 303.741C312.275 303.741 315.741 300.276 315.741 296C315.741 291.725 312.275 288.259 308 288.259C303.725 288.259 300.259 291.725 300.259 296C300.259 300.276 303.725 303.741 308 303.741Z" fill="url(#paint20_radial_2_1291)"/>
<path d="M264.5 64C280.24 64 293 51.2401 293 35.5C293 19.7599 280.24 7 264.5 7C248.76 7 236 19.7599 236 35.5C236 51.2401 248.76 64 264.5 64Z" fill="url(#paint21_radial_2_1291)"/>
<path d="M264.5 42.6174C268.431 42.6174 271.617 39.431 271.617 35.5003C271.617 31.5697 268.431 28.3833 264.5 28.3833C260.569 28.3833 257.383 31.5697 257.383 35.5003C257.383 39.431 260.569 42.6174 264.5 42.6174Z" fill="url(#paint22_radial_2_1291)"/>
<path d="M55.5 142C71.2401 142 84 129.24 84 113.5C84 97.7599 71.2401 85 55.5 85C39.7599 85 27 97.7599 27 113.5C27 129.24 39.7599 142 55.5 142Z" fill="url(#paint23_radial_2_1291)"/>
<path d="M55.5 120.617C59.4306 120.617 62.617 117.431 62.617 113.5C62.617 109.57 59.4306 106.383 55.5 106.383C51.5693 106.383 48.3829 109.57 48.3829 113.5C48.3829 117.431 51.5693 120.617 55.5 120.617Z" fill="url(#paint24_radial_2_1291)"/>
<defs>
<linearGradient id="paint0_linear_2_1291" x1="294.98" y1="167.055" x2="335.564" y2="167.055" gradientUnits="userSpaceOnUse">
<stop stop-color="#E55775"/>
<stop offset="1" stop-color="#E55775" stop-opacity="0"/>
</linearGradient>
<linearGradient id="paint1_linear_2_1291" x1="174.327" y1="256.749" x2="133.966" y2="256.749" gradientUnits="userSpaceOnUse">
<stop stop-color="#E55775"/>
<stop offset="1" stop-color="#E55775" stop-opacity="0"/>
</linearGradient>
<linearGradient id="paint2_linear_2_1291" x1="174.327" y1="93.6652" x2="133.966" y2="93.6652" gradientUnits="userSpaceOnUse">
<stop stop-color="#E55775"/>
<stop offset="1" stop-color="#E55775" stop-opacity="0"/>
</linearGradient>
<linearGradient id="paint3_linear_2_1291" x1="207.659" y1="141.182" x2="346.489" y2="273.578" gradientUnits="userSpaceOnUse">
<stop stop-color="#E55775"/>
<stop offset="1" stop-color="#E55775" stop-opacity="0"/>
</linearGradient>
<linearGradient id="paint4_linear_2_1291" x1="183.505" y1="121.61" x2="286.406" y2="121.61" gradientUnits="userSpaceOnUse">
<stop stop-color="#FFD2DD"/>
<stop offset="1" stop-color="#E55775"/>
</linearGradient>
<linearGradient id="paint5_linear_2_1291" x1="183.505" y1="167.213" x2="286.405" y2="167.213" gradientUnits="userSpaceOnUse">
<stop stop-color="#FFD2DD"/>
<stop offset="1" stop-color="#E55775"/>
</linearGradient>
<linearGradient id="paint6_linear_2_1291" x1="191.957" y1="87.9508" x2="235.078" y2="95.5542" gradientUnits="userSpaceOnUse">
<stop stop-color="white"/>
<stop offset="1" stop-color="#E55775"/>
</linearGradient>
<radialGradient id="paint7_radial_2_1291" cx="0" cy="0" r="1" gradientUnits="userSpaceOnUse" gradientTransform="translate(205.8 84.035) scale(26.7254 26.7254)">
<stop offset="0.2834" stop-color="white"/>
<stop offset="1" stop-color="white" stop-opacity="0"/>
</radialGradient>
<linearGradient id="paint8_linear_2_1291" x1="74.5005" y1="287.963" x2="203.396" y2="96.3621" gradientUnits="userSpaceOnUse">
<stop stop-color="#E55775" stop-opacity="0"/>
<stop offset="1" stop-color="#E55775"/>
</linearGradient>
<linearGradient id="paint9_linear_2_1291" x1="180.038" y1="200.895" x2="187.078" y2="160.288" gradientUnits="userSpaceOnUse">
<stop offset="0.1819" stop-color="#E55775" stop-opacity="0"/>
<stop offset="1" stop-color="#E55775"/>
</linearGradient>
<linearGradient id="paint10_linear_2_1291" x1="176.754" y1="191.044" x2="185.215" y2="135.771" gradientUnits="userSpaceOnUse">
<stop offset="0.1819" stop-color="#E55775" stop-opacity="0"/>
<stop offset="1" stop-color="#E55775"/>
</linearGradient>
<linearGradient id="paint11_linear_2_1291" x1="161.865" y1="174.955" x2="172.611" y2="116.083" gradientUnits="userSpaceOnUse">
<stop offset="0.1819" stop-color="#E55775" stop-opacity="0"/>
<stop offset="1" stop-color="#E55775"/>
</linearGradient>
<linearGradient id="paint12_linear_2_1291" x1="102.856" y1="179.968" x2="118.862" y2="114.036" gradientUnits="userSpaceOnUse">
<stop offset="0.1819" stop-color="#E55775" stop-opacity="0"/>
<stop offset="1" stop-color="#E55775"/>
</linearGradient>
<radialGradient id="paint13_radial_2_1291" cx="0" cy="0" r="1" gradientUnits="userSpaceOnUse" gradientTransform="translate(199.776 88.2045) scale(15.6279 15.6279)">
<stop stop-color="#FFD2DD"/>
<stop offset="1" stop-color="#FFD2DD" stop-opacity="0"/>
</radialGradient>
<radialGradient id="paint14_radial_2_1291" cx="0" cy="0" r="1" gradientUnits="userSpaceOnUse" gradientTransform="translate(307.959 295.59) scale(8.0678)">
<stop offset="0.3583" stop-color="#D6ECFF"/>
<stop offset="0.4502" stop-color="#D6ECFF" stop-opacity="0.8543"/>
<stop offset="0.9893" stop-color="#D6ECFF" stop-opacity="0"/>
</radialGradient>
<radialGradient id="paint15_radial_2_1291" cx="0" cy="0" r="1" gradientUnits="userSpaceOnUse" gradientTransform="translate(161 304) scale(38.9996 38.9996)">
<stop stop-color="#FF97AA" stop-opacity="0.5"/>
<stop offset="1" stop-color="#FBCBD4" stop-opacity="0"/>
</radialGradient>
<radialGradient id="paint16_radial_2_1291" cx="0" cy="0" r="1" gradientUnits="userSpaceOnUse" gradientTransform="translate(161 304) scale(9.73897 9.73897)">
<stop offset="0.3583" stop-color="#FFE7EB"/>
<stop offset="0.4502" stop-color="#FFE7EC" stop-opacity="0.8543"/>
<stop offset="0.9893" stop-color="#FBCBD4" stop-opacity="0"/>
</radialGradient>
<radialGradient id="paint17_radial_2_1291" cx="0" cy="0" r="1" gradientUnits="userSpaceOnUse" gradientTransform="translate(87.8637 29.8636) scale(21.8641 21.8641)">
<stop stop-color="#FFB7C4" stop-opacity="0.5"/>
<stop offset="1" stop-color="#FBCBD4" stop-opacity="0"/>
</radialGradient>
<radialGradient id="paint18_radial_2_1291" cx="0" cy="0" r="1" gradientUnits="userSpaceOnUse" gradientTransform="translate(87.8638 29.8636) scale(3.46807)">
<stop offset="0.3583" stop-color="#FFE7EC"/>
<stop offset="0.4502" stop-color="#FFEDF1" stop-opacity="0.8543"/>
<stop offset="0.9893" stop-color="#FBCBD4" stop-opacity="0"/>
</radialGradient>
<radialGradient id="paint19_radial_2_1291" cx="0" cy="0" r="1" gradientUnits="userSpaceOnUse" gradientTransform="translate(308 296) scale(30.9997 30.9997)">
<stop stop-color="#FF97AA" stop-opacity="0.5"/>
<stop offset="1" stop-color="#FBCBD4" stop-opacity="0"/>
</radialGradient>
<radialGradient id="paint20_radial_2_1291" cx="0" cy="0" r="1" gradientUnits="userSpaceOnUse" gradientTransform="translate(308 296) scale(7.74123 7.74124)">
<stop offset="0.3583" stop-color="#FFE7EB"/>
<stop offset="0.4502" stop-color="#FFE7EC" stop-opacity="0.8543"/>
<stop offset="0.9893" stop-color="#FBCBD4" stop-opacity="0"/>
</radialGradient>
<radialGradient id="paint21_radial_2_1291" cx="0" cy="0" r="1" gradientUnits="userSpaceOnUse" gradientTransform="translate(264.5 35.4997) scale(28.4997 28.4997)">
<stop stop-color="#FF97AA" stop-opacity="0.5"/>
<stop offset="1" stop-color="#FBCBD4" stop-opacity="0"/>
</radialGradient>
<radialGradient id="paint22_radial_2_1291" cx="0" cy="0" r="1" gradientUnits="userSpaceOnUse" gradientTransform="translate(264.5 35.5001) scale(7.11694 7.11694)">
<stop offset="0.3583" stop-color="#FFE7EB"/>
<stop offset="0.4502" stop-color="#FFE7EC" stop-opacity="0.8543"/>
<stop offset="0.9893" stop-color="#FBCBD4" stop-opacity="0"/>
</radialGradient>
<radialGradient id="paint23_radial_2_1291" cx="0" cy="0" r="1" gradientUnits="userSpaceOnUse" gradientTransform="translate(55.5 113.5) scale(28.4997 28.4997)">
<stop stop-color="#FF97AA" stop-opacity="0.5"/>
<stop offset="1" stop-color="#FBCBD4" stop-opacity="0"/>
</radialGradient>
<radialGradient id="paint24_radial_2_1291" cx="0" cy="0" r="1" gradientUnits="userSpaceOnUse" gradientTransform="translate(55.5 113.5) scale(7.11694 7.11694)">
<stop offset="0.3583" stop-color="#FFE7EB"/>
<stop offset="0.4502" stop-color="#FFE7EC" stop-opacity="0.8543"/>
<stop offset="0.9893" stop-color="#FBCBD4" stop-opacity="0"/>
</radialGradient>
</defs>
</svg>
