<svg width="343" height="343" viewBox="0 0 343 343" fill="none" xmlns="http://www.w3.org/2000/svg">
<path d="M26.507 328.602H318.449C318.449 328.602 272.797 307.415 170.996 307.415C69.1943 307.415 26.507 328.602 26.507 328.602Z" fill="url(#paint0_radial_2_1231)"/>
<path opacity="0.15" d="M289.263 242.445H53.737C41.7397 242.445 32.0139 232.719 32.0139 220.722V43.7908C32.0139 31.7935 41.7397 22.0678 53.737 22.0678H289.264C301.261 22.0678 310.987 31.7935 310.987 43.7908V220.721C310.987 232.719 301.261 242.445 289.263 242.445Z" fill="url(#paint1_linear_2_1231)"/>
<path d="M53.737 242.445H289.264C301.261 242.445 310.987 232.72 310.987 220.722V141.907L302.319 138.294L279.606 153.016L258.375 143.13L231.435 159.654L197.741 138.294L169.491 147.318L133.645 126.781L111.206 134.02L95.1705 120.769L86.3288 132.036L69.1763 113.9L32.0139 143.348V220.723C32.0131 232.72 41.7388 242.445 53.737 242.445Z" fill="url(#paint2_linear_2_1231)"/>
<path d="M53.737 242.445H289.264C301.261 242.445 310.987 232.72 310.987 220.722V141.907L302.319 138.294L279.606 153.016L258.375 143.13L231.435 159.654L197.741 138.294L169.491 147.318L133.645 126.781L111.206 134.02L95.1705 120.769L86.3288 132.036L69.1763 113.9L32.0139 143.348V220.723C32.0131 232.72 41.7388 242.445 53.737 242.445Z" fill="url(#paint3_linear_2_1231)"/>
<path d="M181.358 180.048L182.804 182.942L210.893 159.653L218.488 161.363L190.264 194.319C184.717 200.795 174.301 199.196 170.951 191.356L168.459 185.523L181.358 180.048Z" fill="url(#paint4_linear_2_1231)"/>
<path d="M146.077 279.006H137.36C132.687 279.006 128.744 275.528 128.161 270.892L98.8817 211.982L85.2509 147.317H123.128C132.782 147.317 140.928 154.502 142.132 164.08L155.277 268.578C155.973 274.114 151.657 279.006 146.077 279.006Z" fill="#FFE9F0"/>
<path d="M132.425 205.294H214.668C220.814 205.294 225.418 210.924 224.199 216.948L209.568 271.214C208.649 275.748 204.664 279.007 200.038 279.007H138.117C133.139 279.007 128.965 275.248 128.446 270.298L122.755 216.032C122.153 210.292 126.654 205.294 132.425 205.294Z" fill="url(#paint5_linear_2_1231)"/>
<path d="M180.124 271.213C179.206 275.747 175.22 279.007 170.594 279.007H200.038C204.664 279.007 208.649 275.747 209.568 271.213L216.118 246.917L186.355 240.442L183.115 256.445L180.124 271.213Z" fill="#E55775"/>
<path d="M289.263 25.4978C299.35 25.4978 307.556 33.704 307.556 43.7908V220.721C307.556 230.808 299.35 239.014 289.263 239.014H53.737C43.6502 239.014 35.4439 230.808 35.4439 220.721V43.7908C35.4439 33.704 43.6502 25.4978 53.737 25.4978H289.263ZM289.263 22.0678H53.737C41.7397 22.0678 32.0139 31.7935 32.0139 43.7908V220.721C32.0139 232.719 41.7397 242.444 53.737 242.444H289.264C301.261 242.444 310.987 232.719 310.987 220.721V43.7908C310.987 31.7935 301.261 22.0678 289.263 22.0678Z" fill="url(#paint6_linear_2_1231)"/>
<path d="M216.117 246.917L224.198 216.948C225.417 210.924 220.813 205.294 214.667 205.294H183.589L194.766 244.385L216.117 246.917Z" fill="#E55775"/>
<path d="M215.882 205.294H207.307C213.453 205.294 218.057 210.924 216.838 216.948L205.849 271.214C204.93 275.748 200.945 279.007 196.319 279.007H204.894C209.52 279.007 213.505 275.748 214.424 271.214L225.413 216.948C226.633 210.924 222.028 205.294 215.882 205.294Z" fill="#CE3257"/>
<path d="M184.697 178.003L167.571 191.947L148.913 148.987C146.587 142.624 149.703 135.559 155.971 132.987C163.367 129.952 171.684 134.475 173.157 142.333L184.697 178.003Z" fill="url(#paint7_linear_2_1231)"/>
<path d="M170.288 214.092C170.288 214.092 170.797 205.407 171.69 192.433C172.32 183.268 173.205 174.117 174.164 164.98C176.001 147.495 174.548 133.664 159.925 126.812C154.329 124.191 147.226 123.241 141.636 123.004C135.981 122.765 127.08 126.943 122.701 133.481C120.891 136.183 119.894 160.035 119.591 163.716C118.032 182.67 121.425 220.116 121.425 220.116L170.288 214.092Z" fill="url(#paint8_linear_2_1231)"/>
<path d="M141.636 123.004C144.12 118.026 145.968 112.194 147.301 105.669L161.742 111.079C160.615 117.096 158.867 123.212 160.042 126.405C160.042 126.405 162.109 128.462 163.702 131.674C166.59 137.495 156.403 142.598 149.354 132.699C144.009 125.191 141.636 123.004 141.636 123.004Z" fill="url(#paint9_linear_2_1231)"/>
<path d="M211.095 153.015C211.095 153.015 211.032 147.26 213.849 143.839C214.456 143.107 215.499 142.915 216.327 143.383C217.406 143.994 217.656 145.441 216.843 146.378L211.095 153.015Z" fill="#E55775"/>
<path opacity="0.6" d="M138.124 328.602H132.513L128.459 279.007H142.179L138.124 328.602Z" fill="#E55775"/>
<path opacity="0.6" d="M192.064 328.602H186.453L182.399 279.007H196.119L192.064 328.602Z" fill="#E55775"/>
<path d="M230.547 133.251C229.621 132.567 228.323 132.718 227.579 133.597L205.207 160.029C204.448 160.926 204.533 162.262 205.4 163.055L205.495 163.143C206.412 163.982 207.845 163.889 208.645 162.936L230.922 136.417C231.733 135.451 231.562 134.002 230.547 133.251Z" fill="#E55775"/>
<path d="M186.152 221.031C186.152 221.031 197.166 242.327 201.311 252.246C202.226 255.785 202.651 257.686 203.795 261.081C206.421 268.877 216.778 278.397 225.774 286.044C234.77 293.691 240.861 305.924 240.861 305.924L250.653 298.574C250.653 298.574 231.383 265.441 225.049 252.628C224.228 250.966 216.741 234.958 215.234 232.254C212.553 227.439 210.812 225.237 204.468 224.003C199.992 223.134 186.152 221.031 186.152 221.031Z" fill="url(#paint10_linear_2_1231)"/>
<path d="M237.155 303.418C237.239 302.272 238.345 301.474 239.464 301.735C240.825 302.052 242.836 302.3 245.124 301.867C249.342 301.072 248.028 295.033 250.866 296.328C253.703 297.623 258.155 299.556 269.055 299.733C278.976 299.894 282.926 300.291 284.881 306.435C285.378 307.994 285.982 309.066 283.767 309.708C281.552 310.35 263.932 315.505 260.364 316.539C258.384 317.113 256.98 317.118 256.122 317.008C255.691 316.953 255.305 317.211 255.125 317.606C254.949 317.991 254.465 318.436 253.281 318.779C250.658 319.539 246.621 320.886 244.645 321.459C242.668 322.032 242.168 321.616 241.442 319.414C240.717 317.212 237.417 309.045 237.171 305.779C237.1 304.839 237.107 304.056 237.155 303.418Z" fill="url(#paint11_linear_2_1231)"/>
<path d="M137.781 186.309L137.245 192.056L172.658 198.389L176.647 205.293H132.936C126.042 205.248 121.054 199.075 121.447 192.796C121.539 191.309 122.746 183.713 122.746 183.713L137.781 186.309Z" fill="#EDB7C7"/>
<path d="M138.449 187.691L116.774 184.192C116.774 184.192 117.574 153.594 119.548 142.244C121.521 130.894 126.94 128.299 134.288 128.946C141.636 129.592 145.284 132.574 145.284 146.306C145.284 160.038 138.449 187.691 138.449 187.691Z" fill="url(#paint12_linear_2_1231)"/>
<path d="M193.796 221.193C188.948 220.546 170.288 218.059 170.288 218.059C170.288 218.059 177.477 246.247 177.628 246.311C177.724 246.352 185.099 242.615 185.099 242.615C185.099 242.615 184.964 251.8 185.059 257.511C185.197 265.792 189.867 277.155 194.719 288.009C199.962 299.738 201.074 312.126 201.074 312.126L213.006 309.027C213.006 309.027 207.736 270.793 206.739 256.436C206.609 254.574 205.761 236.8 205.394 233.705C204.454 225.802 199.545 221.961 193.796 221.193Z" fill="#EDB7C7"/>
<path d="M203.847 165.494L212.702 158.153L212.194 157.336C210.686 154.836 210.725 151.699 212.297 149.238L216.185 143.208C216.992 141.944 218.492 141.306 219.962 141.6C221.139 141.835 222.261 142.288 223.272 142.936C225.082 144.096 225.739 146.426 224.8 148.36L220.868 157.611C220.432 158.638 219.863 159.602 219.177 160.482L218.488 161.364L209.849 167.081L203.847 165.494Z" fill="url(#paint13_linear_2_1231)"/>
<path d="M205.207 160.03C204.448 160.927 204.533 162.263 205.4 163.056L205.495 163.144C206.412 163.983 207.845 163.89 208.645 162.937L212.676 158.138L208.312 156.362L205.207 160.03Z" fill="#E55775"/>
<path d="M198.88 309.035C199.289 307.953 200.585 307.5 201.591 308.071C202.814 308.766 204.685 309.581 207.017 309.818C211.316 310.256 211.775 304.051 214.144 306.112C216.514 308.174 220.258 311.313 230.732 314.601C240.263 317.594 243.964 319.107 244.094 325.598C244.128 327.245 244.405 328.453 242.083 328.439C239.76 328.425 221.274 328.362 217.534 328.34C215.459 328.328 214.101 327.931 213.304 327.58C212.904 327.404 212.458 327.542 212.17 327.872C211.891 328.194 211.296 328.485 210.054 328.477C207.305 328.461 203.022 328.607 200.95 328.595C198.878 328.583 198.514 328.038 198.443 325.704C198.371 323.371 197.522 314.543 198.219 311.319C198.421 310.391 198.653 309.638 198.88 309.035Z" fill="url(#paint14_linear_2_1231)"/>
<path d="M176.204 102.682C176.571 100.565 175.899 98.6812 174.702 98.4732C173.504 98.2653 172.236 99.8124 171.868 101.929C171.501 104.045 172.173 105.929 173.371 106.137C174.568 106.345 175.836 104.798 176.204 102.682Z" stroke="white" stroke-width="2" stroke-miterlimit="10"/>
<path d="M161.888 74.5759C165.861 68.901 173.135 70.2936 177.623 76.4847C182.112 82.6759 179.687 87.3184 176.798 88.7633C173.908 90.2082 161.888 74.5759 161.888 74.5759Z" fill="#E55775"/>
<path d="M147.92 108.766C147.92 108.766 150.879 114.951 159.45 119.49C164.172 121.991 170.578 119.966 172.513 113.137C172.95 111.594 174.055 111.803 174.788 111.693C175.876 111.53 177.436 110.876 176.201 107.284C174.965 103.692 175.08 101.736 176.727 97.8562C178.375 93.976 179.067 87.8509 175.884 81.7138C172.7 75.5766 162.775 69.6882 146.744 77.6038C130.713 85.5193 142.797 104.512 147.92 108.766Z" fill="#EDB7C7"/>
<path d="M99.3405 205.294H181.583C187.729 205.294 192.333 210.924 191.114 216.948L180.124 271.214C179.205 275.748 175.22 279.007 170.594 279.007H105.031C100.053 279.007 95.8796 275.248 95.36 270.298L89.6688 216.032C89.0677 210.292 93.5687 205.294 99.3405 205.294Z" fill="url(#paint15_linear_2_1231)"/>
<path d="M108.199 279.006H99.4828C94.8095 279.006 90.8667 275.528 90.2836 270.892L76.0517 157.747C75.3554 152.211 79.6712 147.318 85.2509 147.318C94.9047 147.318 103.05 154.503 104.255 164.081L117.399 268.578C118.096 274.114 113.779 279.006 108.199 279.006Z" fill="url(#paint16_linear_2_1231)"/>
<path d="M111.153 328.602H105.543L101.489 279.007H115.209L111.153 328.602Z" fill="url(#paint17_linear_2_1231)"/>
<path d="M165.094 328.602H159.483L155.429 279.007H169.149L165.094 328.602Z" fill="url(#paint18_linear_2_1231)"/>
<path d="M171.1 72.8944C166.598 71.0602 158.22 68.9396 152.416 73.3626C136.326 76.6365 133.312 86.8502 134.53 93.7616C134.913 95.9388 136.058 97.406 137.498 98.3938C135.476 106.4 142.296 110.672 145.762 109.669C148.144 109.358 151.902 108.121 153.456 105.345C153.456 105.345 151.938 103.243 151.02 101.716C150.103 100.189 148.835 94.0283 153.379 92.3013C156.032 91.2937 157.461 92.3519 158.192 93.4075C158.817 94.3096 160.054 94.5462 160.927 93.8808C161.465 93.4709 162.388 93.1159 163.156 90.7544C165.581 84.2125 175.274 84.9834 177.559 86.4729C177.632 86.5286 177.71 86.5818 177.782 86.6384C180.212 82.2574 176.908 75.2611 171.1 72.8944Z" fill="#E55775"/>
<path d="M269.009 79.2357C281.084 79.2357 290.873 69.447 290.873 57.372C290.873 45.297 281.084 35.5083 269.009 35.5083C256.934 35.5083 247.145 45.297 247.145 57.372C247.145 69.447 256.934 79.2357 269.009 79.2357Z" fill="url(#paint19_radial_2_1231)"/>
<path d="M269.009 60.8398C270.924 60.8398 272.477 59.2872 272.477 57.372C272.477 55.4569 270.924 53.9043 269.009 53.9043C267.094 53.9043 265.541 55.4569 265.541 57.372C265.541 59.2872 267.094 60.8398 269.009 60.8398Z" fill="url(#paint20_radial_2_1231)"/>
<path d="M217.066 131.473C231.05 131.473 242.387 120.136 242.387 106.152C242.387 92.1672 231.05 80.8306 217.066 80.8306C203.081 80.8306 191.745 92.1672 191.745 106.152C191.745 120.136 203.081 131.473 217.066 131.473Z" fill="url(#paint21_radial_2_1231)"/>
<path d="M86 101C103.121 101 117 87.1208 117 70C117 52.8792 103.121 39 86 39C68.8792 39 55 52.8792 55 70C55 87.1208 68.8792 101 86 101Z" fill="url(#paint22_radial_2_1231)"/>
<path d="M217.066 112.475C220.558 112.475 223.389 109.644 223.389 106.152C223.389 102.66 220.558 99.8286 217.066 99.8286C213.574 99.8286 210.743 102.66 210.743 106.152C210.743 109.644 213.574 112.475 217.066 112.475Z" fill="url(#paint23_radial_2_1231)"/>
<path d="M86 77.7415C90.2754 77.7415 93.7413 74.2756 93.7413 70.0001C93.7413 65.7247 90.2754 62.2588 86 62.2588C81.7246 62.2588 78.2587 65.7247 78.2587 70.0001C78.2587 74.2756 81.7246 77.7415 86 77.7415Z" fill="url(#paint24_radial_2_1231)"/>
<path d="M181.582 205.294H109.438L104.254 164.081C103.049 154.503 94.9038 147.318 85.2501 147.318C79.6703 147.318 75.3545 152.211 76.0508 157.747L90.2827 270.892C90.8658 275.528 94.8086 279.006 99.482 279.006H105.03H108.198H170.592C175.218 279.006 179.204 275.747 180.122 271.213L191.113 216.947C192.333 210.924 187.728 205.294 181.582 205.294Z" fill="url(#paint25_linear_2_1231)"/>
<path d="M181.582 205.294H109.438L104.254 164.081C103.049 154.503 94.9038 147.318 85.2501 147.318C79.6703 147.318 75.3545 152.211 76.0508 157.747L90.2827 270.892C90.8658 275.528 94.8086 279.006 99.482 279.006H105.03H108.198H170.592C175.218 279.006 179.204 275.747 180.122 271.213L191.113 216.947C192.333 210.924 187.728 205.294 181.582 205.294Z" fill="url(#paint26_linear_2_1231)"/>
<path d="M181.582 205.294H175.58C181.726 205.294 183.757 210.924 182.538 216.948L171.549 271.214C170.631 275.748 166.645 279.007 162.019 279.007H170.594C175.22 279.007 179.206 275.748 180.124 271.214L191.113 216.948C192.333 210.924 187.728 205.294 181.582 205.294Z" fill="#FFE9F0"/>
<path d="M168.789 199.918C168.789 199.918 169.142 197.719 172.658 198.389C176.175 199.06 178.926 199.708 181.4 200.126C184.248 200.606 188.568 202.005 189.451 204.492C191.57 210.461 192.169 216.213 192.041 218.575C191.912 220.937 190.576 221.62 186.077 221.966C184.748 222.068 180.445 219.413 179.157 213.273C177.869 207.133 177.86 206.569 177.86 206.569C177.86 206.569 177.557 205.185 175.318 205.296C173.043 205.406 168.789 199.918 168.789 199.918Z" fill="#EDB7C7"/>
<path d="M168.095 105.51C170.243 105.51 171.984 103.769 171.984 101.621C171.984 99.4724 170.243 97.731 168.095 97.731C165.947 97.731 164.205 99.4724 164.205 101.621C164.205 103.769 165.947 105.51 168.095 105.51Z" stroke="white" stroke-width="2" stroke-miterlimit="10"/>
<path d="M172.069 101.057C174.997 100.177 176.053 101.621 176.053 101.621" stroke="white" stroke-width="2" stroke-miterlimit="10" stroke-linecap="round" stroke-linejoin="round"/>
<defs>
<radialGradient id="paint0_radial_2_1231" cx="0" cy="0" r="1" gradientUnits="userSpaceOnUse" gradientTransform="translate(172.478 341.359) scale(192.914 41.9201)">
<stop stop-color="#E55775" stop-opacity="0.4"/>
<stop offset="0.7968" stop-color="#E55775" stop-opacity="0"/>
</radialGradient>
<linearGradient id="paint1_linear_2_1231" x1="74.5531" y1="40.5068" x2="368.79" y2="318.97" gradientUnits="userSpaceOnUse">
<stop stop-color="#D6ECFF"/>
<stop offset="1" stop-color="#D6ECFF" stop-opacity="0"/>
</linearGradient>
<linearGradient id="paint2_linear_2_1231" x1="171.5" y1="82.9786" x2="171.5" y2="331.646" gradientUnits="userSpaceOnUse">
<stop stop-color="#E55775"/>
<stop offset="0.7447" stop-color="#E55775" stop-opacity="0"/>
</linearGradient>
<linearGradient id="paint3_linear_2_1231" x1="171.5" y1="176.09" x2="171.5" y2="70.8193" gradientUnits="userSpaceOnUse">
<stop stop-color="#FFD2DD" stop-opacity="0"/>
<stop offset="0.6355" stop-color="#FFD2DD" stop-opacity="0.854"/>
<stop offset="0.7442" stop-color="#FFD2DD"/>
</linearGradient>
<linearGradient id="paint4_linear_2_1231" x1="233.948" y1="177.357" x2="112.191" y2="182.668" gradientUnits="userSpaceOnUse">
<stop stop-color="#EDB7C7"/>
<stop offset="1" stop-color="#ED8EA9"/>
</linearGradient>
<linearGradient id="paint5_linear_2_1231" x1="115.186" y1="363.085" x2="189.502" y2="187.012" gradientUnits="userSpaceOnUse">
<stop stop-color="white"/>
<stop offset="1" stop-color="#E55775"/>
</linearGradient>
<linearGradient id="paint6_linear_2_1231" x1="277.681" y1="5.71421" x2="65.3185" y2="258.799" gradientUnits="userSpaceOnUse">
<stop stop-color="#FFD2DD"/>
<stop offset="1" stop-color="#E55775"/>
</linearGradient>
<linearGradient id="paint7_linear_2_1231" x1="167.715" y1="184.819" x2="164.599" y2="128.737" gradientUnits="userSpaceOnUse">
<stop stop-color="#FFD2DD"/>
<stop offset="0.9973" stop-color="white"/>
</linearGradient>
<linearGradient id="paint8_linear_2_1231" x1="137.088" y1="123.036" x2="155.953" y2="228.795" gradientUnits="userSpaceOnUse">
<stop stop-color="white"/>
<stop offset="0.1943" stop-color="#F7CCD5"/>
<stop offset="0.4575" stop-color="#ED8DA2"/>
<stop offset="0.6502" stop-color="#E76681"/>
<stop offset="0.7503" stop-color="#E55775"/>
</linearGradient>
<linearGradient id="paint9_linear_2_1231" x1="153.644" y1="138.361" x2="150.786" y2="98.5351" gradientUnits="userSpaceOnUse">
<stop stop-color="#EDB7C7"/>
<stop offset="0.1746" stop-color="#EDB1C2"/>
<stop offset="0.402" stop-color="#EBA1B4"/>
<stop offset="0.6584" stop-color="#E9869D"/>
<stop offset="0.9344" stop-color="#E6617E"/>
<stop offset="1" stop-color="#E55775"/>
</linearGradient>
<linearGradient id="paint10_linear_2_1231" x1="245.691" y1="297.961" x2="170.694" y2="192.73" gradientUnits="userSpaceOnUse">
<stop stop-color="#EDB7C7"/>
<stop offset="1" stop-color="#ED8EA9"/>
</linearGradient>
<linearGradient id="paint11_linear_2_1231" x1="261.654" y1="327.028" x2="260.892" y2="289.679" gradientUnits="userSpaceOnUse">
<stop offset="0.2166" stop-color="#ED8EA9"/>
<stop offset="1" stop-color="#E55775"/>
</linearGradient>
<linearGradient id="paint12_linear_2_1231" x1="131.378" y1="184.248" x2="129.94" y2="104.439" gradientUnits="userSpaceOnUse">
<stop stop-color="#FFD2DD"/>
<stop offset="0.9973" stop-color="white"/>
</linearGradient>
<linearGradient id="paint13_linear_2_1231" x1="232.907" y1="153.502" x2="111.15" y2="158.813" gradientUnits="userSpaceOnUse">
<stop stop-color="#EDB7C7"/>
<stop offset="1" stop-color="#ED8EA9"/>
</linearGradient>
<linearGradient id="paint14_linear_2_1231" x1="222.251" y1="345.367" x2="220.155" y2="304.207" gradientUnits="userSpaceOnUse">
<stop offset="0.2166" stop-color="#ED8EA9"/>
<stop offset="1" stop-color="#E55775"/>
</linearGradient>
<linearGradient id="paint15_linear_2_1231" x1="88.6491" y1="351.885" x2="162.966" y2="175.812" gradientUnits="userSpaceOnUse">
<stop stop-color="white"/>
<stop offset="1" stop-color="#E55775"/>
</linearGradient>
<linearGradient id="paint16_linear_2_1231" x1="45.8059" y1="333.802" x2="120.123" y2="157.728" gradientUnits="userSpaceOnUse">
<stop stop-color="white"/>
<stop offset="1" stop-color="#E55775"/>
</linearGradient>
<linearGradient id="paint17_linear_2_1231" x1="108.348" y1="372.151" x2="108.348" y2="282.504" gradientUnits="userSpaceOnUse">
<stop stop-color="#FFD2DD"/>
<stop offset="1" stop-color="#E55775"/>
</linearGradient>
<linearGradient id="paint18_linear_2_1231" x1="162.288" y1="372.151" x2="162.288" y2="282.504" gradientUnits="userSpaceOnUse">
<stop stop-color="#FFD2DD"/>
<stop offset="1" stop-color="#E55775"/>
</linearGradient>
<radialGradient id="paint19_radial_2_1231" cx="0" cy="0" r="1" gradientUnits="userSpaceOnUse" gradientTransform="translate(269.009 57.3719) scale(21.8641 21.8641)">
<stop stop-color="#FFB7C4" stop-opacity="0.5"/>
<stop offset="1" stop-color="#FBCBD4" stop-opacity="0"/>
</radialGradient>
<radialGradient id="paint20_radial_2_1231" cx="0" cy="0" r="1" gradientUnits="userSpaceOnUse" gradientTransform="translate(269.009 57.3719) scale(3.46807)">
<stop offset="0.3583" stop-color="#FFE7EC"/>
<stop offset="0.4502" stop-color="#FFEDF1" stop-opacity="0.8543"/>
<stop offset="0.9893" stop-color="#FBCBD4" stop-opacity="0"/>
</radialGradient>
<radialGradient id="paint21_radial_2_1231" cx="0" cy="0" r="1" gradientUnits="userSpaceOnUse" gradientTransform="translate(217.066 106.151) scale(25.3209 25.3209)">
<stop stop-color="#FF97AA" stop-opacity="0.5"/>
<stop offset="1" stop-color="#FBCBD4" stop-opacity="0"/>
</radialGradient>
<radialGradient id="paint22_radial_2_1231" cx="0" cy="0" r="1" gradientUnits="userSpaceOnUse" gradientTransform="translate(86 69.9997) scale(30.9997 30.9997)">
<stop stop-color="#FF97AA" stop-opacity="0.5"/>
<stop offset="1" stop-color="#FBCBD4" stop-opacity="0"/>
</radialGradient>
<radialGradient id="paint23_radial_2_1231" cx="0" cy="0" r="1" gradientUnits="userSpaceOnUse" gradientTransform="translate(217.066 106.152) scale(6.32312 6.32312)">
<stop offset="0.3583" stop-color="#FFE7EB"/>
<stop offset="0.4502" stop-color="#FFE7EC" stop-opacity="0.8543"/>
<stop offset="0.9893" stop-color="#FBCBD4" stop-opacity="0"/>
</radialGradient>
<radialGradient id="paint24_radial_2_1231" cx="0" cy="0" r="1" gradientUnits="userSpaceOnUse" gradientTransform="translate(86 69.9998) scale(7.74123 7.74124)">
<stop offset="0.3583" stop-color="#FFE7EB"/>
<stop offset="0.4502" stop-color="#FFE7EC" stop-opacity="0.8543"/>
<stop offset="0.9893" stop-color="#FBCBD4" stop-opacity="0"/>
</radialGradient>
<linearGradient id="paint25_linear_2_1231" x1="134.901" y1="208.191" x2="63.8317" y2="259.339" gradientUnits="userSpaceOnUse">
<stop offset="0.1819" stop-color="#E55775" stop-opacity="0"/>
<stop offset="1" stop-color="#E55775"/>
</linearGradient>
<linearGradient id="paint26_linear_2_1231" x1="134.901" y1="208.191" x2="63.8317" y2="259.339" gradientUnits="userSpaceOnUse">
<stop offset="0.1819" stop-color="#FFD2DD" stop-opacity="0"/>
<stop offset="1" stop-color="#FFD2DD"/>
</linearGradient>
</defs>
</svg>
