<svg width="354" height="218" viewBox="0 0 354 218" fill="none" xmlns="http://www.w3.org/2000/svg">
<g clip-path="url(#clip0_10_1570)">
<path d="M354 0H0V218H354V0Z" fill="white"/>
<path opacity="0.3" d="M299.538 109C299.538 61.5419 272.595 20.3846 233.183 0H120.816C81.4046 20.3846 54.4614 61.5419 54.4614 109C54.4614 156.458 81.4046 197.615 120.816 218H233.183C272.595 197.615 299.538 156.458 299.538 109Z" fill="url(#paint0_radial_10_1570)"/>
<path opacity="0.48" d="M177 209.825C232.645 209.825 277.754 164.684 277.754 109C277.754 53.3159 232.645 8.17505 177 8.17505C121.355 8.17505 76.2461 53.3159 76.2461 109C76.2461 164.684 121.355 209.825 177 209.825Z" fill="url(#paint1_radial_10_1570)"/>
<path d="M354 0H0V89.1985H354V0Z" fill="url(#paint2_linear_10_1570)"/>
<path d="M354 0H0V45.6868H354V0Z" fill="url(#paint3_linear_10_1570)"/>
<path d="M0 130.525H354V218H0V130.525Z" fill="url(#paint4_linear_10_1570)"/>
<path d="M0 174.073H354V218H0V174.073Z" fill="url(#paint5_linear_10_1570)"/>
<path opacity="0.7" d="M177 187.139C220.125 187.139 255.084 152.155 255.084 109C255.084 65.8448 220.125 30.8606 177 30.8606C133.876 30.8606 98.916 65.8448 98.916 109C98.916 152.155 133.876 187.139 177 187.139Z" fill="url(#paint6_radial_10_1570)"/>
<path d="M177 164.454C207.605 164.454 232.415 139.626 232.415 109C232.415 78.3736 207.605 53.5461 177 53.5461C146.395 53.5461 121.585 78.3736 121.585 109C121.585 139.626 146.395 164.454 177 164.454Z" fill="url(#paint7_radial_10_1570)"/>
<path d="M177 141.768C195.084 141.768 209.745 127.097 209.745 109C209.745 90.9027 195.084 76.2319 177 76.2319C158.915 76.2319 144.255 90.9027 144.255 109C144.255 127.097 158.915 141.768 177 141.768Z" fill="url(#paint8_radial_10_1570)"/>
<path d="M211.776 218C217.386 209.361 226.104 195.742 231.335 186.607C239.52 172.317 241.61 159.248 247.531 147.92C253.452 136.593 261.288 125.614 265.99 116.901C270.691 108.187 264.597 105.455 253.974 108.999C243.351 112.544 237.256 117.526 232.554 126.275C227.853 135.024 226.459 139.032 225.24 141.298C224.021 143.563 222.105 144.957 218.274 145.306C217.056 136.767 215.488 123.696 214.966 104.702C214.444 85.7066 214.635 56.7791 214.618 37.9575C214.602 21.0429 197.593 21.2206 197.204 37.9575C196.831 53.9893 192.85 99.2995 192.328 104.004C191.806 108.709 186.93 110.278 186.93 103.482C186.93 96.6856 187.486 43.183 187.8 30.1155C188.17 14.7563 169.975 11.0198 169.341 29.0697C168.661 48.4395 166.729 102.262 166.555 106.096C166.381 109.93 161.505 113.763 160.808 106.793C160.112 99.8221 156.012 42.6789 155.584 33.2525C154.981 19.9753 136.846 17.6623 137.32 34.5655C137.867 54.0879 141.652 119.863 141.652 124.22C141.652 128.576 137.995 130.667 136.427 124.394C134.86 118.12 120.745 80.0784 116.749 67.7576C113.212 56.85 97.476 58.7258 102.818 76.471C107.413 91.736 117.098 133.107 120.407 144.435C123.119 153.722 132.154 201.199 135.32 217.999C141.216 218.059 204.302 218.059 211.776 218Z" fill="url(#paint9_linear_10_1570)"/>
<path d="M247.531 147.921C253.452 136.593 261.288 125.614 265.99 116.901C270.691 108.187 264.597 105.455 253.974 108.999C243.351 112.544 237.256 117.526 232.554 126.275C227.853 135.024 226.459 139.032 225.24 141.298C224.021 143.563 222.105 144.957 218.274 145.306C220.476 161.383 223.944 181.477 222.74 200.825C225.91 195.752 228.977 190.724 231.335 186.606C239.52 172.318 241.61 159.248 247.531 147.921Z" fill="url(#paint10_linear_10_1570)"/>
<path d="M135.319 218C141.216 218.058 204.302 218.058 211.776 218C217.386 209.361 226.103 195.742 231.335 186.607C239.52 172.318 241.609 159.248 247.53 147.921C247.928 147.16 248.336 146.4 248.75 145.643H120.738C123.789 157.244 132.272 201.829 135.319 218Z" fill="url(#paint11_linear_10_1570)"/>
<path d="M139.64 38.5719C144.14 40.9595 148.029 41.014 153.537 37.6868C153.537 37.6868 154.328 24.3648 145.438 24.8989C137.125 25.3982 139.64 38.5719 139.64 38.5719Z" fill="url(#paint12_linear_10_1570)"/>
<path d="M171.68 32.3087C176.046 34.873 179.926 35.1389 185.603 32.2095C185.603 32.2095 187.1 19.317 178.195 19.3492C169.869 19.3786 171.68 32.3087 171.68 32.3087Z" fill="url(#paint13_linear_10_1570)"/>
<path d="M104.939 75.9647C109.201 77.0395 112.5 76.3162 116.52 72.4931C116.52 72.4931 114.634 61.3838 107.22 63.578C100.287 65.6293 104.939 75.9647 104.939 75.9647Z" fill="url(#paint14_linear_10_1570)"/>
<path d="M199.959 38.7272C203.789 41.056 207.233 41.3781 212.342 38.9692C212.342 38.9692 213.94 27.8136 206.021 27.6316C198.616 27.461 199.959 38.7272 199.959 38.7272Z" fill="url(#paint15_linear_10_1570)"/>
<path d="M267.59 111.49C266.064 111.451 262.72 111.641 259.926 113.728C256.175 116.531 254.466 120.38 254.466 120.38C254.466 120.38 254.085 124.663 259.25 128.187C261.778 124.151 264.131 120.347 265.99 116.901C267.166 114.721 267.667 112.916 267.59 111.49Z" fill="url(#paint16_linear_10_1570)"/>
<path d="M156.155 49.7504C156.293 52.234 152.474 54.4652 147.625 54.735C142.776 55.0042 138.734 53.2095 138.596 50.7265C138.459 48.2429 142.277 46.0117 147.126 45.7419C151.975 45.4721 156.017 47.2668 156.155 49.7504Z" fill="url(#paint17_radial_10_1570)"/>
<path d="M186.851 46.1408C186.723 48.6249 182.687 50.4348 177.837 50.1841C172.987 49.9334 169.16 47.7164 169.288 45.2328C169.416 42.7487 173.452 40.9388 178.302 41.1895C183.151 41.4402 186.979 43.6567 186.851 46.1408Z" fill="url(#paint18_radial_10_1570)"/>
<path d="M214.512 49.05C214.384 51.5341 210.349 53.344 205.499 53.0933C200.649 52.8426 196.822 50.6256 196.95 48.142C197.078 45.6579 201.113 43.8479 205.963 44.0986C210.813 44.3493 214.64 46.5659 214.512 49.05Z" fill="url(#paint19_radial_10_1570)"/>
<path opacity="0.4" d="M186.205 75.5529C186.077 78.037 182.041 79.8469 177.192 79.5962C172.342 79.3455 168.515 77.1285 168.643 74.6449C168.771 72.1608 172.806 70.3509 177.656 70.6016C182.505 70.8523 186.333 73.0693 186.205 75.5529Z" fill="url(#paint20_radial_10_1570)"/>
<path opacity="0.4" d="M213.356 80.272C213.052 82.7403 208.898 84.2598 204.079 83.6657C199.26 83.0717 195.599 80.5886 195.903 78.1198C196.207 75.6515 200.361 74.132 205.18 74.7261C210 75.3207 213.66 77.8037 213.356 80.272Z" fill="url(#paint21_radial_10_1570)"/>
<path opacity="0.2" d="M186.051 110.397C186.189 112.881 182.37 115.112 177.522 115.382C172.673 115.651 168.631 113.856 168.493 111.373C168.355 108.89 172.174 106.659 177.023 106.389C181.871 106.119 185.913 107.914 186.051 110.397Z" fill="url(#paint22_radial_10_1570)"/>
<path opacity="0.2" d="M212.379 114.407C211.997 116.864 207.797 118.251 202.999 117.504C198.2 116.756 194.62 114.158 195.003 111.7C195.385 109.243 199.584 107.857 204.383 108.604C209.182 109.351 212.761 111.949 212.379 114.407Z" fill="url(#paint23_radial_10_1570)"/>
<path opacity="0.2" d="M255.239 141.594C253.55 144.196 249.465 144.538 246.115 142.359C242.766 140.181 241.42 136.306 243.109 133.705C244.798 131.104 248.883 130.761 252.233 132.94C255.583 135.119 256.929 138.994 255.239 141.594Z" fill="url(#paint24_radial_10_1570)"/>
<path opacity="0.4" d="M157.444 77.7502C157.582 80.2337 153.763 82.465 148.915 82.7347C144.066 83.004 140.024 81.2093 139.886 78.7262C139.748 76.2432 143.567 74.0115 148.416 73.7417C153.264 73.4719 157.307 75.2666 157.444 77.7502Z" fill="url(#paint25_radial_10_1570)"/>
<path opacity="0.2" d="M161.416 115.339C161.902 117.778 158.436 120.526 153.674 121.477C148.911 122.428 144.656 121.221 144.17 118.782C143.684 116.342 147.15 113.594 151.912 112.644C156.674 111.693 160.93 112.9 161.416 115.339Z" fill="url(#paint26_radial_10_1570)"/>
<path opacity="0.2" d="M136.496 128.898C137.428 131.203 134.535 134.551 130.034 136.374C125.533 138.197 121.128 137.806 120.195 135.501C119.263 133.195 122.156 129.848 126.657 128.025C131.159 126.202 135.564 126.593 136.496 128.898Z" fill="url(#paint27_radial_10_1570)"/>
<path opacity="0.4" d="M123.914 91.4787C124.847 93.7841 121.954 97.1315 117.452 98.9545C112.951 100.778 108.546 100.387 107.613 98.0814C106.68 95.7761 109.574 92.4287 114.075 90.6057C118.577 88.7821 122.982 89.1729 123.914 91.4787Z" fill="url(#paint28_radial_10_1570)"/>
<g filter="url(#filter0_dd_10_1570)">
<path d="M171.858 129.747L143.569 179.253C141.061 183.642 144.216 189.115 149.256 189.115H205.834C210.874 189.115 214.029 183.642 211.521 179.253L183.231 129.747C180.712 125.338 174.378 125.338 171.858 129.747Z" fill="#FFFAFA"/>
</g>
<path d="M177.273 181.172C179.378 181.172 181.085 179.464 181.085 177.357C181.085 175.25 179.378 173.542 177.273 173.542C175.167 173.542 173.46 175.25 173.46 177.357C173.46 179.464 175.167 181.172 177.273 181.172Z" fill="#E65876"/>
<path d="M177.273 138.662C175.468 138.662 174.005 140.126 174.005 141.932V167.002C174.005 168.808 175.468 170.272 177.273 170.272C179.077 170.272 180.54 168.808 180.54 167.002V141.932C180.54 140.126 179.077 138.662 177.273 138.662Z" fill="url(#paint29_linear_10_1570)"/>
<path d="M306 70C323.121 70 337 56.1208 337 39C337 21.8792 323.121 8 306 8C288.879 8 275 21.8792 275 39C275 56.1208 288.879 70 306 70Z" fill="url(#paint30_radial_10_1570)"/>
<path d="M292 210C309.121 210 323 196.121 323 179C323 161.879 309.121 148 292 148C274.879 148 261 161.879 261 179C261 196.121 274.879 210 292 210Z" fill="url(#paint31_radial_10_1570)"/>
<path d="M72 208C89.1208 208 103 194.121 103 177C103 159.879 89.1208 146 72 146C54.8792 146 41 159.879 41 177C41 194.121 54.8792 208 72 208Z" fill="url(#paint32_radial_10_1570)"/>
<path d="M41 118C58.1208 118 72 104.121 72 87C72 69.8792 58.1208 56 41 56C23.8792 56 10 69.8792 10 87C10 104.121 23.8792 118 41 118Z" fill="url(#paint33_radial_10_1570)"/>
<path d="M69 58C86.1208 58 100 44.1208 100 27C100 9.87917 86.1208 -4 69 -4C51.8792 -4 38 9.87917 38 27C38 44.1208 51.8792 58 69 58Z" fill="url(#paint34_radial_10_1570)"/>
</g>
<defs>
<filter id="filter0_dd_10_1570" x="109.689" y="93.4399" width="135.711" height="128.675" filterUnits="userSpaceOnUse" color-interpolation-filters="sRGB">
<feFlood flood-opacity="0" result="BackgroundImageFix"/>
<feColorMatrix in="SourceAlpha" type="matrix" values="0 0 0 0 0 0 0 0 0 0 0 0 0 0 0 0 0 0 127 0" result="hardAlpha"/>
<feOffset/>
<feGaussianBlur stdDeviation="16.5"/>
<feComposite in2="hardAlpha" operator="out"/>
<feColorMatrix type="matrix" values="0 0 0 0 0.901961 0 0 0 0 0.345098 0 0 0 0 0.462745 0 0 0 1 0"/>
<feBlend mode="normal" in2="BackgroundImageFix" result="effect1_dropShadow_10_1570"/>
<feColorMatrix in="SourceAlpha" type="matrix" values="0 0 0 0 0 0 0 0 0 0 0 0 0 0 0 0 0 0 127 0" result="hardAlpha"/>
<feOffset/>
<feGaussianBlur stdDeviation="7"/>
<feComposite in2="hardAlpha" operator="out"/>
<feColorMatrix type="matrix" values="0 0 0 0 0.901961 0 0 0 0 0.345098 0 0 0 0 0.462745 0 0 0 1 0"/>
<feBlend mode="normal" in2="effect1_dropShadow_10_1570" result="effect2_dropShadow_10_1570"/>
<feBlend mode="normal" in="SourceGraphic" in2="effect2_dropShadow_10_1570" result="shape"/>
</filter>
<radialGradient id="paint0_radial_10_1570" cx="0" cy="0" r="1" gradientUnits="userSpaceOnUse" gradientTransform="translate(177 109) scale(183.29 183.42)">
<stop offset="0.4317" stop-color="#E65876" stop-opacity="0"/>
<stop offset="1" stop-color="#F3ABBA"/>
</radialGradient>
<radialGradient id="paint1_radial_10_1570" cx="0" cy="0" r="1" gradientUnits="userSpaceOnUse" gradientTransform="translate(177 109) scale(150.705 150.812)">
<stop offset="0.4317" stop-color="#E65876" stop-opacity="0"/>
<stop offset="1" stop-color="#F3ACBB"/>
</radialGradient>
<linearGradient id="paint2_linear_10_1570" x1="177" y1="2.69671" x2="177" y2="85.742" gradientUnits="userSpaceOnUse">
<stop offset="0.0677083" stop-color="white"/>
<stop offset="0.8761" stop-color="white" stop-opacity="0"/>
</linearGradient>
<linearGradient id="paint3_linear_10_1570" x1="177" y1="1.38125" x2="177" y2="43.9165" gradientUnits="userSpaceOnUse">
<stop offset="0.0591" stop-color="white"/>
<stop offset="0.8761" stop-color="white" stop-opacity="0"/>
</linearGradient>
<linearGradient id="paint4_linear_10_1570" x1="177" y1="215.355" x2="177" y2="133.914" gradientUnits="userSpaceOnUse">
<stop offset="0.0591" stop-color="white"/>
<stop offset="0.8761" stop-color="white" stop-opacity="0"/>
</linearGradient>
<linearGradient id="paint5_linear_10_1570" x1="177" y1="216.672" x2="177" y2="175.775" gradientUnits="userSpaceOnUse">
<stop offset="0.0591" stop-color="white"/>
<stop offset="0.8761" stop-color="white" stop-opacity="0"/>
</linearGradient>
<radialGradient id="paint6_radial_10_1570" cx="0" cy="0" r="1" gradientUnits="userSpaceOnUse" gradientTransform="translate(177 109) scale(116.797 116.879)">
<stop offset="0.4317" stop-color="#E65876" stop-opacity="0"/>
<stop offset="1" stop-color="#F3ADBC"/>
</radialGradient>
<radialGradient id="paint7_radial_10_1570" cx="0" cy="0" r="1" gradientUnits="userSpaceOnUse" gradientTransform="translate(177 109) scale(82.8879 82.9465)">
<stop offset="0.4317" stop-color="#E65876" stop-opacity="0"/>
<stop offset="0.4318" stop-color="#E65876" stop-opacity="0"/>
<stop offset="1" stop-color="#F4AEBD"/>
</radialGradient>
<radialGradient id="paint8_radial_10_1570" cx="0" cy="0" r="1" gradientUnits="userSpaceOnUse" gradientTransform="translate(177 109) scale(48.9793 49.0139)">
<stop offset="0.4317" stop-color="#E65876" stop-opacity="0"/>
<stop offset="1" stop-color="#E65876"/>
</radialGradient>
<linearGradient id="paint9_linear_10_1570" x1="184.66" y1="214.601" x2="184.66" y2="33.4712" gradientUnits="userSpaceOnUse">
<stop stop-color="#F9D0D9"/>
<stop offset="1" stop-color="#E86682"/>
</linearGradient>
<linearGradient id="paint10_linear_10_1570" x1="242.887" y1="153.894" x2="210.226" y2="137.147" gradientUnits="userSpaceOnUse">
<stop offset="0.1901" stop-color="#F2A5B5" stop-opacity="0"/>
<stop offset="1" stop-color="#EC7D94"/>
</linearGradient>
<linearGradient id="paint11_linear_10_1570" x1="184.744" y1="217.881" x2="184.744" y2="150.752" gradientUnits="userSpaceOnUse">
<stop offset="0.0591" stop-color="white"/>
<stop offset="0.9806" stop-color="white" stop-opacity="0"/>
</linearGradient>
<linearGradient id="paint12_linear_10_1570" x1="146.768" y1="42.8623" x2="145.937" y2="25.6037" gradientUnits="userSpaceOnUse">
<stop stop-color="white"/>
<stop offset="1" stop-color="white" stop-opacity="0"/>
</linearGradient>
<linearGradient id="paint13_linear_10_1570" x1="178.573" y1="36.871" x2="178.707" y2="20.0679" gradientUnits="userSpaceOnUse">
<stop stop-color="white"/>
<stop offset="1" stop-color="white" stop-opacity="0"/>
</linearGradient>
<linearGradient id="paint14_linear_10_1570" x1="111.768" y1="78.0661" x2="107.789" y2="64.0313" gradientUnits="userSpaceOnUse">
<stop stop-color="white"/>
<stop offset="1" stop-color="white" stop-opacity="0"/>
</linearGradient>
<linearGradient id="paint15_linear_10_1570" x1="205.994" y1="42.84" x2="206.493" y2="28.2583" gradientUnits="userSpaceOnUse">
<stop stop-color="white"/>
<stop offset="1" stop-color="white" stop-opacity="0"/>
</linearGradient>
<linearGradient id="paint16_linear_10_1570" x1="254.106" y1="127.921" x2="263.991" y2="114.103" gradientUnits="userSpaceOnUse">
<stop stop-color="white"/>
<stop offset="1" stop-color="white" stop-opacity="0"/>
</linearGradient>
<radialGradient id="paint17_radial_10_1570" cx="0" cy="0" r="1" gradientUnits="userSpaceOnUse" gradientTransform="translate(147.39 50.2306) rotate(-3.17794) scale(7.87577 4.03971)">
<stop stop-color="#E65876"/>
<stop offset="1" stop-color="#E65876" stop-opacity="0"/>
</radialGradient>
<radialGradient id="paint18_radial_10_1570" cx="0" cy="0" r="1" gradientUnits="userSpaceOnUse" gradientTransform="translate(178.041 45.6941) rotate(2.95976) scale(7.87575 4.22352)">
<stop stop-color="#E65876"/>
<stop offset="1" stop-color="#E65876" stop-opacity="0"/>
</radialGradient>
<radialGradient id="paint19_radial_10_1570" cx="0" cy="0" r="1" gradientUnits="userSpaceOnUse" gradientTransform="translate(205.766 48.616) rotate(2.95977) scale(7.87573 3.9805)">
<stop stop-color="#E65876"/>
<stop offset="1" stop-color="#E65876" stop-opacity="0"/>
</radialGradient>
<radialGradient id="paint20_radial_10_1570" cx="0" cy="0" r="1" gradientUnits="userSpaceOnUse" gradientTransform="translate(177.409 75.1045) rotate(2.95976) scale(7.87574 4.23615)">
<stop stop-color="#E65876"/>
<stop offset="1" stop-color="#E65876" stop-opacity="0"/>
</radialGradient>
<radialGradient id="paint21_radial_10_1570" cx="0" cy="0" r="1" gradientUnits="userSpaceOnUse" gradientTransform="translate(204.618 79.1675) rotate(7.02971) scale(7.87561 4.00281)">
<stop stop-color="#E65876"/>
<stop offset="1" stop-color="#E65876" stop-opacity="0"/>
</radialGradient>
<radialGradient id="paint22_radial_10_1570" cx="0" cy="0" r="1" gradientUnits="userSpaceOnUse" gradientTransform="translate(177.285 110.897) rotate(-3.17794) scale(7.87576 4.25204)">
<stop stop-color="#E65876"/>
<stop offset="1" stop-color="#E65876" stop-opacity="0"/>
</radialGradient>
<radialGradient id="paint23_radial_10_1570" cx="0" cy="0" r="1" gradientUnits="userSpaceOnUse" gradientTransform="translate(203.669 113.04) rotate(8.85337) scale(7.87559 4.15773)">
<stop stop-color="#E65876"/>
<stop offset="1" stop-color="#E65876" stop-opacity="0"/>
</radialGradient>
<radialGradient id="paint24_radial_10_1570" cx="0" cy="0" r="1" gradientUnits="userSpaceOnUse" gradientTransform="translate(249.217 137.683) rotate(33.0382) scale(6.48033 5.18465)">
<stop stop-color="#E65876"/>
<stop offset="1" stop-color="#E65876" stop-opacity="0"/>
</radialGradient>
<radialGradient id="paint25_radial_10_1570" cx="0" cy="0" r="1" gradientUnits="userSpaceOnUse" gradientTransform="translate(148.662 78.2543) rotate(-3.17794) scale(7.87576 4.33099)">
<stop stop-color="#E65876"/>
<stop offset="1" stop-color="#E65876" stop-opacity="0"/>
</radialGradient>
<radialGradient id="paint26_radial_10_1570" cx="0" cy="0" r="1" gradientUnits="userSpaceOnUse" gradientTransform="translate(152.803 117.047) rotate(-11.2929) scale(7.87597 4.05584)">
<stop stop-color="#E65876"/>
<stop offset="1" stop-color="#E65876" stop-opacity="0"/>
</radialGradient>
<radialGradient id="paint27_radial_10_1570" cx="0" cy="0" r="1" gradientUnits="userSpaceOnUse" gradientTransform="translate(128.331 132.189) rotate(-22.0517) scale(7.87593 3.98628)">
<stop stop-color="#E65876"/>
<stop offset="1" stop-color="#E65876" stop-opacity="0"/>
</radialGradient>
<radialGradient id="paint28_radial_10_1570" cx="0" cy="0" r="1" gradientUnits="userSpaceOnUse" gradientTransform="translate(115.749 94.7692) rotate(-22.0517) scale(7.87593 3.98627)">
<stop stop-color="#E65876"/>
<stop offset="1" stop-color="#E65876" stop-opacity="0"/>
</radialGradient>
<linearGradient id="paint29_linear_10_1570" x1="177.273" y1="167.729" x2="177.273" y2="137.36" gradientUnits="userSpaceOnUse">
<stop stop-color="#E65876"/>
<stop offset="0.161458" stop-color="#E86681"/>
<stop offset="0.8823" stop-color="#F7C5D2"/>
</linearGradient>
<radialGradient id="paint30_radial_10_1570" cx="0" cy="0" r="1" gradientUnits="userSpaceOnUse" gradientTransform="translate(306 38.9997) scale(30.9997 30.9997)">
<stop stop-color="#FFECEF"/>
<stop offset="1" stop-color="#FFE3E8" stop-opacity="0"/>
</radialGradient>
<radialGradient id="paint31_radial_10_1570" cx="0" cy="0" r="1" gradientUnits="userSpaceOnUse" gradientTransform="translate(292 179) scale(30.9997 30.9997)">
<stop stop-color="#FFECEF"/>
<stop offset="1" stop-color="#FFE3E8" stop-opacity="0"/>
</radialGradient>
<radialGradient id="paint32_radial_10_1570" cx="0" cy="0" r="1" gradientUnits="userSpaceOnUse" gradientTransform="translate(72 177) scale(30.9997 30.9997)">
<stop stop-color="#FFECEF"/>
<stop offset="1" stop-color="#FFE3E8" stop-opacity="0"/>
</radialGradient>
<radialGradient id="paint33_radial_10_1570" cx="0" cy="0" r="1" gradientUnits="userSpaceOnUse" gradientTransform="translate(41 86.9997) scale(30.9997 30.9997)">
<stop stop-color="#FFECEF"/>
<stop offset="1" stop-color="#FFE3E8" stop-opacity="0"/>
</radialGradient>
<radialGradient id="paint34_radial_10_1570" cx="0" cy="0" r="1" gradientUnits="userSpaceOnUse" gradientTransform="translate(69 26.9997) scale(30.9997 30.9997)">
<stop stop-color="#FFE9EE"/>
<stop offset="1" stop-color="#FFE3E8" stop-opacity="0"/>
</radialGradient>
<clipPath id="clip0_10_1570">
<rect width="354" height="218" fill="white"/>
</clipPath>
</defs>
</svg>
